<?xml version="1.0" encoding="UTF-8" standalone="no"?>
<!DOCTYPE svg PUBLIC "-//W3C//DTD SVG 1.1//EN"
 "http://www.w3.org/Graphics/SVG/1.1/DTD/svg11.dtd">
<!-- Generated by graphviz version 2.40.1 (20161225.0304)
 -->
<!-- Title: main Pages: 1 -->
<svg width="293pt" height="1472pt"
 viewBox="0.00 0.00 293.00 1472.00" xmlns="http://www.w3.org/2000/svg" xmlns:xlink="http://www.w3.org/1999/xlink">
<g id="graph0" class="graph" transform="scale(1 1) rotate(0) translate(4 1468)">
<title>main</title>
<!-- Node26 -->
<g id="node1" class="node">
<title>Node26</title>
<polygon fill="#bfbfbf" stroke="#000000" points="0,-655.5 0,-674.5 38,-674.5 38,-655.5 0,-655.5"/>
<text text-anchor="middle" x="19" y="-662.5" font-family="Helvetica,sans-Serif" font-size="10.00" fill="#000000">main</text>
</g>
<!-- Node27 -->
<g id="node2" class="node">
<title>Node27</title>
<g id="a_node2"><a xlink:href="main_8c.html#a2858154e2009b0e6e616f313177762bc" target="_top" xlink:title="Initialize ports, timers and ISRs. ">
<polygon fill="none" stroke="#000000" points="74.5,-969.5 74.5,-988.5 103.5,-988.5 103.5,-969.5 74.5,-969.5"/>
<text text-anchor="middle" x="89" y="-976.5" font-family="Helvetica,sans-Serif" font-size="10.00" fill="#000000">init</text>
</a>
</g>
</g>
<!-- Node26&#45;&gt;Node27 -->
<g id="edge1" class="edge">
<title>Node26&#45;&gt;Node27</title>
<path fill="none" stroke="#191970" d="M21.1717,-674.7417C30.9708,-718.6977 71.1709,-899.0238 84.605,-959.2853"/>
<polygon fill="#191970" stroke="#191970" points="81.2615,-960.3731 86.8536,-969.3719 88.0938,-958.8499 81.2615,-960.3731"/>
</g>
<!-- Node53 -->
<g id="node28" class="node">
<title>Node53</title>
<g id="a_node28"><a xlink:href="main_8c.html#a05e0ffe612d44e6d7f3a9ae5b9df56a2" target="_top" xlink:title="The main test code body. ">
<polygon fill="none" stroke="#000000" points="74,-361.5 74,-380.5 104,-380.5 104,-361.5 74,-361.5"/>
<text text-anchor="middle" x="89" y="-368.5" font-family="Helvetica,sans-Serif" font-size="10.00" fill="#000000">run</text>
</a>
</g>
</g>
<!-- Node26&#45;&gt;Node53 -->
<g id="edge27" class="edge">
<title>Node26&#45;&gt;Node53</title>
<path fill="none" stroke="#191970" d="M21.329,-655.2181C31.3371,-613.1843 70.7965,-447.4547 84.3781,-390.4119"/>
<polygon fill="#191970" stroke="#191970" points="87.8216,-391.0601 86.733,-380.5213 81.0119,-389.4387 87.8216,-391.0601"/>
</g>
<!-- Node28 -->
<g id="node3" class="node">
<title>Node28</title>
<g id="a_node3"><a xlink:href="hsk__boot_8h.html#a269a6fcd133ceff6c31b30ee568698b3" target="_top" xlink:title="Switches to an external oscilator. ">
<polygon fill="none" stroke="#000000" points="162,-798.5 162,-817.5 263,-817.5 263,-798.5 162,-798.5"/>
<text text-anchor="middle" x="212.5" y="-805.5" font-family="Helvetica,sans-Serif" font-size="10.00" fill="#000000">hsk_boot_extClock</text>
</a>
</g>
</g>
<!-- Node27&#45;&gt;Node28 -->
<g id="edge2" class="edge">
<title>Node27&#45;&gt;Node28</title>
<path fill="none" stroke="#191970" d="M91.0003,-969.2887C97.4189,-939.0264 118.344,-847.2431 140,-827 143.7651,-823.4805 148.1008,-820.5953 152.7402,-818.2323"/>
<polygon fill="#191970" stroke="#191970" points="154.138,-821.4413 161.9665,-814.3023 151.3948,-815.0011 154.138,-821.4413"/>
</g>
<!-- Node29 -->
<g id="node4" class="node">
<title>Node29</title>
<g id="a_node4"><a xlink:href="hsk__flash_8h.html#acc2074fa68d4da24fb483fbd49438da9" target="_top" xlink:title="Recovers a struct from a previous session and sets everything up for storage of changes. ">
<polygon fill="none" stroke="#000000" points="174,-760.5 174,-779.5 251,-779.5 251,-760.5 174,-760.5"/>
<text text-anchor="middle" x="212.5" y="-767.5" font-family="Helvetica,sans-Serif" font-size="10.00" fill="#000000">hsk_flash_init</text>
</a>
</g>
</g>
<!-- Node27&#45;&gt;Node29 -->
<g id="edge3" class="edge">
<title>Node27&#45;&gt;Node29</title>
<path fill="none" stroke="#191970" d="M90.2924,-969.4185C95.1788,-934.5718 113.5981,-815.2457 140,-789 146.5735,-782.4654 155.1023,-778.0962 163.9892,-775.1934"/>
<polygon fill="#191970" stroke="#191970" points="164.9476,-778.5602 173.6975,-772.586 163.1319,-771.7997 164.9476,-778.5602"/>
</g>
<!-- Node30 -->
<g id="node5" class="node">
<title>Node30</title>
<g id="a_node5"><a xlink:href="hsk__flash_8h.html#a36a01af82333ae82b381cd939fcd421f" target="_top" xlink:title="Writes the current data to the D&#45;Flash. ">
<polygon fill="none" stroke="#000000" points="170,-722.5 170,-741.5 255,-741.5 255,-722.5 170,-722.5"/>
<text text-anchor="middle" x="212.5" y="-729.5" font-family="Helvetica,sans-Serif" font-size="10.00" fill="#000000">hsk_flash_write</text>
</a>
</g>
</g>
<!-- Node27&#45;&gt;Node30 -->
<g id="edge4" class="edge">
<title>Node27&#45;&gt;Node30</title>
<path fill="none" stroke="#191970" d="M89.83,-969.4552C93.4148,-930.403 108.8162,-783.3349 140,-751 145.5254,-745.2706 152.5498,-741.1945 160.0413,-738.3087"/>
<polygon fill="#191970" stroke="#191970" points="161.2225,-741.606 169.7028,-735.255 159.1129,-734.9315 161.2225,-741.606"/>
</g>
<!-- Node31 -->
<g id="node6" class="node">
<title>Node31</title>
<g id="a_node6"><a xlink:href="hsk__timer01_8h.html#a667ac946d585afa9ab8050f03e1c97d4" target="_top" xlink:title="Setup timer 0 to tick at a given interval. ">
<polygon fill="none" stroke="#000000" points="165.5,-1444.5 165.5,-1463.5 259.5,-1463.5 259.5,-1444.5 165.5,-1444.5"/>
<text text-anchor="middle" x="212.5" y="-1451.5" font-family="Helvetica,sans-Serif" font-size="10.00" fill="#000000">hsk_timer0_setup</text>
</a>
</g>
</g>
<!-- Node27&#45;&gt;Node31 -->
<g id="edge5" class="edge">
<title>Node27&#45;&gt;Node31</title>
<path fill="none" stroke="#191970" d="M89.4261,-988.531C92.2989,-1050.9496 109.6504,-1399.8993 140,-1435 144.3005,-1439.9737 149.7279,-1443.7241 155.67,-1446.5405"/>
<polygon fill="#191970" stroke="#191970" points="154.7524,-1449.9367 165.343,-1450.2389 157.2524,-1443.3983 154.7524,-1449.9367"/>
</g>
<!-- Node32 -->
<g id="node7" class="node">
<title>Node32</title>
<g id="a_node7"><a xlink:href="main_8c.html#abadcd102692e413d1f7ec394e32dfbe1" target="_top" xlink:title="A ticking function called back by the timer T0 ISR. ">
<polygon fill="none" stroke="#000000" points="193.5,-1406.5 193.5,-1425.5 231.5,-1425.5 231.5,-1406.5 193.5,-1406.5"/>
<text text-anchor="middle" x="212.5" y="-1413.5" font-family="Helvetica,sans-Serif" font-size="10.00" fill="#000000">tick0</text>
</a>
</g>
</g>
<!-- Node27&#45;&gt;Node32 -->
<g id="edge6" class="edge">
<title>Node27&#45;&gt;Node32</title>
<path fill="none" stroke="#191970" d="M89.5471,-988.8771C92.967,-1049.0798 112.166,-1365.1332 140,-1397 150.7104,-1409.2622 168.2709,-1414.0766 183.4266,-1415.7944"/>
<polygon fill="#191970" stroke="#191970" points="183.1877,-1419.2862 193.4211,-1416.5424 183.7102,-1412.3057 183.1877,-1419.2862"/>
</g>
<!-- Node33 -->
<g id="node8" class="node">
<title>Node33</title>
<g id="a_node8"><a xlink:href="hsk__timer01_8h.html#a94be3e9335459456cabe17026c4ac785" target="_top" xlink:title="Enables the timer 0 and its interrupt. ">
<polygon fill="none" stroke="#000000" points="163.5,-1368.5 163.5,-1387.5 261.5,-1387.5 261.5,-1368.5 163.5,-1368.5"/>
<text text-anchor="middle" x="212.5" y="-1375.5" font-family="Helvetica,sans-Serif" font-size="10.00" fill="#000000">hsk_timer0_enable</text>
</a>
</g>
</g>
<!-- Node27&#45;&gt;Node33 -->
<g id="edge7" class="edge">
<title>Node27&#45;&gt;Node33</title>
<path fill="none" stroke="#191970" d="M89.661,-988.7046C93.5928,-1045.2078 114.594,-1330.2629 140,-1359 143.8244,-1363.3259 148.5014,-1366.7229 153.6204,-1369.3832"/>
<polygon fill="#191970" stroke="#191970" points="152.6483,-1372.7711 163.2234,-1373.4174 155.3596,-1366.3174 152.6483,-1372.7711"/>
</g>
<!-- Node34 -->
<g id="node9" class="node">
<title>Node34</title>
<g id="a_node9"><a xlink:href="hsk__adc_8h.html#ab81d21d9e6875accdd23077d31fa3782" target="_top" xlink:title="Initialize the AD conversion. ">
<polygon fill="none" stroke="#000000" points="177,-1330.5 177,-1349.5 248,-1349.5 248,-1330.5 177,-1330.5"/>
<text text-anchor="middle" x="212.5" y="-1337.5" font-family="Helvetica,sans-Serif" font-size="10.00" fill="#000000">hsk_adc_init</text>
</a>
</g>
</g>
<!-- Node27&#45;&gt;Node34 -->
<g id="edge8" class="edge">
<title>Node27&#45;&gt;Node34</title>
<path fill="none" stroke="#191970" d="M89.8163,-988.7567C94.3492,-1041.9403 117.0487,-1295.4187 140,-1321 147.0459,-1328.8533 156.902,-1333.6378 167.0811,-1336.5097"/>
<polygon fill="#191970" stroke="#191970" points="166.3332,-1339.9289 176.8582,-1338.7149 167.8733,-1333.1004 166.3332,-1339.9289"/>
</g>
<!-- Node35 -->
<g id="node10" class="node">
<title>Node35</title>
<g id="a_node10"><a xlink:href="hsk__adc_8h.html#a1d7fa0af4b60b748dc19919a5d3c3184" target="_top" xlink:title="Turns on ADC conversion, if previously deactivated. ">
<polygon fill="none" stroke="#000000" points="169,-1292.5 169,-1311.5 256,-1311.5 256,-1292.5 169,-1292.5"/>
<text text-anchor="middle" x="212.5" y="-1299.5" font-family="Helvetica,sans-Serif" font-size="10.00" fill="#000000">hsk_adc_enable</text>
</a>
</g>
</g>
<!-- Node27&#45;&gt;Node35 -->
<g id="edge9" class="edge">
<title>Node27&#45;&gt;Node35</title>
<path fill="none" stroke="#191970" d="M89.2564,-988.7067C90.6922,-1035.6121 99.2085,-1238.3575 140,-1283 145.1291,-1288.6134 151.6944,-1292.654 158.7729,-1295.5475"/>
<polygon fill="#191970" stroke="#191970" points="158.0635,-1298.9995 168.6569,-1298.8221 160.265,-1292.3547 158.0635,-1298.9995"/>
</g>
<!-- Node36 -->
<g id="node11" class="node">
<title>Node36</title>
<g id="a_node11"><a xlink:href="hsk__can_8h.html#a5bea69c2f6ea507ef8bda72c64a682f1" target="_top" xlink:title="Setup CAN communication with the desired baud rate. ">
<polygon fill="none" stroke="#000000" points="177,-1254.5 177,-1273.5 248,-1273.5 248,-1254.5 177,-1254.5"/>
<text text-anchor="middle" x="212.5" y="-1261.5" font-family="Helvetica,sans-Serif" font-size="10.00" fill="#000000">hsk_can_init</text>
</a>
</g>
</g>
<!-- Node27&#45;&gt;Node36 -->
<g id="edge10" class="edge">
<title>Node27&#45;&gt;Node36</title>
<path fill="none" stroke="#191970" d="M89.5051,-988.6267C91.9597,-1031.7279 104.0265,-1206.5366 140,-1245 147.066,-1252.5551 156.7352,-1257.2501 166.7093,-1260.1328"/>
<polygon fill="#191970" stroke="#191970" points="166.1677,-1263.6 176.7,-1262.4502 167.7495,-1256.7811 166.1677,-1263.6"/>
</g>
<!-- Node37 -->
<g id="node12" class="node">
<title>Node37</title>
<g id="a_node12"><a xlink:href="hsk__can_8h.html#a244f850938990aa104f5e40b3db8b161" target="_top" xlink:title="Disable a CAN node. ">
<polygon fill="none" stroke="#000000" points="168,-1216.5 168,-1235.5 257,-1235.5 257,-1216.5 168,-1216.5"/>
<text text-anchor="middle" x="212.5" y="-1223.5" font-family="Helvetica,sans-Serif" font-size="10.00" fill="#000000">hsk_can_disable</text>
</a>
</g>
</g>
<!-- Node27&#45;&gt;Node37 -->
<g id="edge11" class="edge">
<title>Node27&#45;&gt;Node37</title>
<path fill="none" stroke="#191970" d="M89.83,-988.5448C93.4148,-1027.597 108.8162,-1174.6651 140,-1207 145.0921,-1212.2801 151.4573,-1216.156 158.2881,-1218.9903"/>
<polygon fill="#191970" stroke="#191970" points="157.2208,-1222.3242 167.8153,-1222.2434 159.4828,-1215.6997 157.2208,-1222.3242"/>
</g>
<!-- Node38 -->
<g id="node13" class="node">
<title>Node38</title>
<g id="a_node13"><a xlink:href="hsk__can_8h.html#a6c60d9c3c7d519a53485837bf7faaa8a" target="_top" xlink:title="Go live on the CAN bus. ">
<polygon fill="none" stroke="#000000" points="169,-1178.5 169,-1197.5 256,-1197.5 256,-1178.5 169,-1178.5"/>
<text text-anchor="middle" x="212.5" y="-1185.5" font-family="Helvetica,sans-Serif" font-size="10.00" fill="#000000">hsk_can_enable</text>
</a>
</g>
</g>
<!-- Node27&#45;&gt;Node38 -->
<g id="edge12" class="edge">
<title>Node27&#45;&gt;Node38</title>
<path fill="none" stroke="#191970" d="M90.2924,-988.5815C95.1788,-1023.4282 113.5981,-1142.7543 140,-1169 145.3292,-1174.2977 151.9435,-1178.1721 158.9918,-1180.9957"/>
<polygon fill="#191970" stroke="#191970" points="158.1992,-1184.4198 168.7923,-1184.2299 160.3929,-1177.7724 158.1992,-1184.4198"/>
</g>
<!-- Node39 -->
<g id="node14" class="node">
<title>Node39</title>
<g id="a_node14"><a xlink:href="hsk__pwm_8h.html#afb0e12ce3f25f6ff1464e8d52851dd9d" target="_top" xlink:title="Sets up the the CCU6 timer frequencies that control the PWM cycle. ">
<polygon fill="none" stroke="#000000" points="174,-1140.5 174,-1159.5 251,-1159.5 251,-1140.5 174,-1140.5"/>
<text text-anchor="middle" x="212.5" y="-1147.5" font-family="Helvetica,sans-Serif" font-size="10.00" fill="#000000">hsk_pwm_init</text>
</a>
</g>
</g>
<!-- Node27&#45;&gt;Node39 -->
<g id="edge13" class="edge">
<title>Node27&#45;&gt;Node39</title>
<path fill="none" stroke="#191970" d="M91.0003,-988.7113C97.4189,-1018.9736 118.344,-1110.7569 140,-1131 146.6302,-1137.1976 155.0295,-1141.4285 163.7416,-1144.3042"/>
<polygon fill="#191970" stroke="#191970" points="163.0643,-1147.7474 173.6333,-1147.0079 164.9099,-1140.9951 163.0643,-1147.7474"/>
</g>
<!-- Node40 -->
<g id="node15" class="node">
<title>Node40</title>
<g id="a_node15"><a xlink:href="hsk__pwm_8h.html#a867217108a46c87879decc4348e36925" target="_top" xlink:title="Turns on the CCU6. ">
<polygon fill="none" stroke="#000000" points="166.5,-1102.5 166.5,-1121.5 258.5,-1121.5 258.5,-1102.5 166.5,-1102.5"/>
<text text-anchor="middle" x="212.5" y="-1109.5" font-family="Helvetica,sans-Serif" font-size="10.00" fill="#000000">hsk_pwm_enable</text>
</a>
</g>
</g>
<!-- Node27&#45;&gt;Node40 -->
<g id="edge14" class="edge">
<title>Node27&#45;&gt;Node40</title>
<path fill="none" stroke="#191970" d="M90.4475,-988.6224C94.2764,-1010.6127 106.7582,-1064.8174 140,-1093 144.885,-1097.1415 150.5714,-1100.3928 156.5707,-1102.9432"/>
<polygon fill="#191970" stroke="#191970" points="155.5908,-1106.3102 166.1853,-1106.4011 157.9599,-1099.7232 155.5908,-1106.3102"/>
</g>
<!-- Node41 -->
<g id="node16" class="node">
<title>Node41</title>
<g id="a_node16"><a xlink:href="hsk__pwm_8h.html#abe64ff01b392ef0e6b05e34d9ea85ca2" target="_top" xlink:title="Set up a PWM output port. ">
<polygon fill="none" stroke="#000000" points="159,-1064.5 159,-1083.5 266,-1083.5 266,-1064.5 159,-1064.5"/>
<text text-anchor="middle" x="212.5" y="-1071.5" font-family="Helvetica,sans-Serif" font-size="10.00" fill="#000000">hsk_pwm_port_open</text>
</a>
</g>
</g>
<!-- Node27&#45;&gt;Node41 -->
<g id="edge15" class="edge">
<title>Node27&#45;&gt;Node41</title>
<path fill="none" stroke="#191970" d="M92.73,-988.5743C99.561,-1004.817 115.6529,-1037.6905 140,-1055 142.8981,-1057.0604 146.0037,-1058.8974 149.2394,-1060.5353"/>
<polygon fill="#191970" stroke="#191970" points="148.0738,-1063.8455 158.6385,-1064.6439 150.8775,-1057.4315 148.0738,-1063.8455"/>
</g>
<!-- Node42 -->
<g id="node17" class="node">
<title>Node42</title>
<g id="a_node17"><a xlink:href="hsk__pwm_8h.html#adb1789fc98257f9c48a9e44dbaf5f307" target="_top" xlink:title="Set the duty cycle for the given channel. ">
<polygon fill="none" stroke="#000000" points="154.5,-570.5 154.5,-589.5 270.5,-589.5 270.5,-570.5 154.5,-570.5"/>
<text text-anchor="middle" x="212.5" y="-577.5" font-family="Helvetica,sans-Serif" font-size="10.00" fill="#000000">hsk_pwm_channel_set</text>
</a>
</g>
</g>
<!-- Node27&#45;&gt;Node42 -->
<g id="edge16" class="edge">
<title>Node27&#45;&gt;Node42</title>
<path fill="none" stroke="#191970" d="M89.661,-969.2954C93.5928,-912.7922 114.594,-627.7371 140,-599 141.7345,-597.0381 143.6443,-595.2673 145.6911,-593.6696"/>
<polygon fill="#191970" stroke="#191970" points="147.5831,-596.6144 154.1845,-588.3275 143.8562,-590.689 147.5831,-596.6144"/>
</g>
<!-- Node43 -->
<g id="node18" class="node">
<title>Node43</title>
<g id="a_node18"><a xlink:href="hsk__pwc_8h.html#a878c8f83d9c509b964683d51fe0b41fe" target="_top" xlink:title="This function initializes the T2CCU Capture/Compare Unit for capture mode. ">
<polygon fill="none" stroke="#000000" points="175.5,-1026.5 175.5,-1045.5 249.5,-1045.5 249.5,-1026.5 175.5,-1026.5"/>
<text text-anchor="middle" x="212.5" y="-1033.5" font-family="Helvetica,sans-Serif" font-size="10.00" fill="#000000">hsk_pwc_init</text>
</a>
</g>
</g>
<!-- Node27&#45;&gt;Node43 -->
<g id="edge17" class="edge">
<title>Node27&#45;&gt;Node43</title>
<path fill="none" stroke="#191970" d="M99.5393,-988.7802C109.3331,-997.3751 124.6762,-1009.6293 140,-1017 148.0084,-1020.852 156.9039,-1024.0011 165.6432,-1026.548"/>
<polygon fill="#191970" stroke="#191970" points="164.8219,-1029.9515 175.3881,-1029.1731 166.6427,-1023.1924 164.8219,-1029.9515"/>
</g>
<!-- Node44 -->
<g id="node19" class="node">
<title>Node44</title>
<g id="a_node19"><a xlink:href="hsk__pwc_8h.html#a8911a823ba8327813571f9f86b8ff089" target="_top" xlink:title="Opens an input port and the connected channel. ">
<polygon fill="none" stroke="#000000" points="160.5,-988.5 160.5,-1007.5 264.5,-1007.5 264.5,-988.5 160.5,-988.5"/>
<text text-anchor="middle" x="212.5" y="-995.5" font-family="Helvetica,sans-Serif" font-size="10.00" fill="#000000">hsk_pwc_port_open</text>
</a>
</g>
</g>
<!-- Node27&#45;&gt;Node44 -->
<g id="edge18" class="edge">
<title>Node27&#45;&gt;Node44</title>
<path fill="none" stroke="#191970" d="M103.652,-981.2542C115.4026,-983.0619 132.7552,-985.7316 150.1693,-988.4107"/>
<polygon fill="#191970" stroke="#191970" points="149.9718,-991.9214 160.3878,-989.9827 151.0363,-985.0028 149.9718,-991.9214"/>
</g>
<!-- Node45 -->
<g id="node20" class="node">
<title>Node45</title>
<g id="a_node20"><a xlink:href="hsk__pwc_8h.html#a5f439afc50db173f63ce03b4889a03f5" target="_top" xlink:title="Select the edge that is used to detect a pulse. ">
<polygon fill="none" stroke="#000000" points="140,-950.5 140,-969.5 285,-969.5 285,-950.5 140,-950.5"/>
<text text-anchor="middle" x="212.5" y="-957.5" font-family="Helvetica,sans-Serif" font-size="10.00" fill="#000000">hsk_pwc_channel_edgeMode</text>
</a>
</g>
</g>
<!-- Node27&#45;&gt;Node45 -->
<g id="edge19" class="edge">
<title>Node27&#45;&gt;Node45</title>
<path fill="none" stroke="#191970" d="M103.652,-976.7458C113.1638,-975.2825 126.3463,-973.2544 140.2608,-971.1137"/>
<polygon fill="#191970" stroke="#191970" points="141.1286,-974.5215 150.4801,-969.5415 140.0641,-967.6029 141.1286,-974.5215"/>
</g>
<!-- Node46 -->
<g id="node21" class="node">
<title>Node46</title>
<g id="a_node21"><a xlink:href="hsk__pwc_8h.html#a4f120d755c5ab2521fe060fb9c1b2148" target="_top" xlink:title="Enables T2CCU module if disabled. ">
<polygon fill="none" stroke="#000000" points="168,-912.5 168,-931.5 257,-931.5 257,-912.5 168,-912.5"/>
<text text-anchor="middle" x="212.5" y="-919.5" font-family="Helvetica,sans-Serif" font-size="10.00" fill="#000000">hsk_pwc_enable</text>
</a>
</g>
</g>
<!-- Node27&#45;&gt;Node46 -->
<g id="edge20" class="edge">
<title>Node27&#45;&gt;Node46</title>
<path fill="none" stroke="#191970" d="M99.5393,-969.2198C109.3331,-960.6249 124.6762,-948.3707 140,-941 145.6944,-938.261 151.8373,-935.8775 158.0536,-933.8131"/>
<polygon fill="#191970" stroke="#191970" points="159.2878,-937.0958 167.8286,-930.8265 157.2423,-930.4013 159.2878,-937.0958"/>
</g>
<!-- Node47 -->
<g id="node22" class="node">
<title>Node47</title>
<g id="a_node22"><a xlink:href="hsk__wdt_8h.html#a354e2c3989af35f9c2a059d3f0beba86" target="_top" xlink:title="Sets up the watchdog timer. ">
<polygon fill="none" stroke="#000000" points="177,-874.5 177,-893.5 248,-893.5 248,-874.5 177,-874.5"/>
<text text-anchor="middle" x="212.5" y="-881.5" font-family="Helvetica,sans-Serif" font-size="10.00" fill="#000000">hsk_wdt_init</text>
</a>
</g>
</g>
<!-- Node27&#45;&gt;Node47 -->
<g id="edge21" class="edge">
<title>Node27&#45;&gt;Node47</title>
<path fill="none" stroke="#191970" d="M92.73,-969.4257C99.561,-953.183 115.6529,-920.3095 140,-903 147.9495,-897.3483 157.4598,-893.3773 166.9352,-890.5874"/>
<polygon fill="#191970" stroke="#191970" points="167.9068,-893.9517 176.7301,-888.0866 166.175,-887.1693 167.9068,-893.9517"/>
</g>
<!-- Node48 -->
<g id="node23" class="node">
<title>Node48</title>
<g id="a_node23"><a xlink:href="hsk__wdt_8h.html#adc711831b93a22ece59252549f9d8ea9" target="_top" xlink:title="Activates the Watchdog Timer. ">
<polygon fill="none" stroke="#000000" points="169,-836.5 169,-855.5 256,-855.5 256,-836.5 169,-836.5"/>
<text text-anchor="middle" x="212.5" y="-843.5" font-family="Helvetica,sans-Serif" font-size="10.00" fill="#000000">hsk_wdt_enable</text>
</a>
</g>
</g>
<!-- Node27&#45;&gt;Node48 -->
<g id="edge22" class="edge">
<title>Node27&#45;&gt;Node48</title>
<path fill="none" stroke="#191970" d="M90.4475,-969.3776C94.2764,-947.3873 106.7582,-893.1826 140,-865 145.5952,-860.2563 152.242,-856.6805 159.2058,-853.9883"/>
<polygon fill="#191970" stroke="#191970" points="160.4147,-857.2754 168.8296,-850.8379 158.2369,-850.6228 160.4147,-857.2754"/>
</g>
<!-- Node49 -->
<g id="node24" class="node">
<title>Node49</title>
<g id="a_node24"><a xlink:href="hsk__can_8h.html#a48d89d605eb1f79774d1a5a86bf387bc" target="_top" xlink:title="Creates a new CAN message. ">
<polygon fill="none" stroke="#000000" points="157.5,-532.5 157.5,-551.5 267.5,-551.5 267.5,-532.5 157.5,-532.5"/>
<text text-anchor="middle" x="212.5" y="-539.5" font-family="Helvetica,sans-Serif" font-size="10.00" fill="#000000">hsk_can_msg_create</text>
</a>
</g>
</g>
<!-- Node27&#45;&gt;Node49 -->
<g id="edge23" class="edge">
<title>Node27&#45;&gt;Node49</title>
<path fill="none" stroke="#191970" d="M89.5471,-969.1229C92.967,-908.9202 112.166,-592.8668 140,-561 142.5011,-558.1366 145.3756,-555.6793 148.5059,-553.5727"/>
<polygon fill="#191970" stroke="#191970" points="150.201,-556.635 157.3082,-548.7776 146.8523,-550.4879 150.201,-556.635"/>
</g>
<!-- Node50 -->
<g id="node25" class="node">
<title>Node50</title>
<g id="a_node25"><a xlink:href="hsk__can_8h.html#afbae0ee5ea7ee60cbeb705d5d940f2b4" target="_top" xlink:title="Connect a message object to a CAN node. ">
<polygon fill="none" stroke="#000000" points="154,-684.5 154,-703.5 271,-703.5 271,-684.5 154,-684.5"/>
<text text-anchor="middle" x="212.5" y="-691.5" font-family="Helvetica,sans-Serif" font-size="10.00" fill="#000000">hsk_can_msg_connect</text>
</a>
</g>
</g>
<!-- Node27&#45;&gt;Node50 -->
<g id="edge24" class="edge">
<title>Node27&#45;&gt;Node50</title>
<path fill="none" stroke="#191970" d="M89.5051,-969.3733C91.9597,-926.2721 104.0265,-751.4634 140,-713 141.5887,-711.3013 143.3091,-709.7472 145.1349,-708.3258"/>
<polygon fill="#191970" stroke="#191970" points="147.1405,-711.1989 153.7348,-702.9064 143.4085,-705.2767 147.1405,-711.1989"/>
</g>
<!-- Node51 -->
<g id="node26" class="node">
<title>Node51</title>
<g id="a_node26"><a xlink:href="hsk__can_8h.html#a65593388f5d52493130ef62966b11c11" target="_top" xlink:title="Sets the current data in the CAN message. ">
<polygon fill="none" stroke="#000000" points="154,-646.5 154,-665.5 271,-665.5 271,-646.5 154,-646.5"/>
<text text-anchor="middle" x="212.5" y="-653.5" font-family="Helvetica,sans-Serif" font-size="10.00" fill="#000000">hsk_can_msg_setData</text>
</a>
</g>
</g>
<!-- Node27&#45;&gt;Node51 -->
<g id="edge25" class="edge">
<title>Node27&#45;&gt;Node51</title>
<path fill="none" stroke="#191970" d="M89.2564,-969.2933C90.6922,-922.3879 99.2085,-719.6425 140,-675 141.6046,-673.2439 143.3497,-671.6418 145.2071,-670.1806"/>
<polygon fill="#191970" stroke="#191970" points="147.3983,-672.9362 153.9825,-664.6357 143.6591,-667.0185 147.3983,-672.9362"/>
</g>
<!-- Node52 -->
<g id="node27" class="node">
<title>Node52</title>
<g id="a_node27"><a xlink:href="hsk__can_8h.html#ae4bc047461eb48f3c81edbd728cc57d2" target="_top" xlink:title="Request transmission of a message. ">
<polygon fill="none" stroke="#000000" points="160.5,-608.5 160.5,-627.5 264.5,-627.5 264.5,-608.5 160.5,-608.5"/>
<text text-anchor="middle" x="212.5" y="-615.5" font-family="Helvetica,sans-Serif" font-size="10.00" fill="#000000">hsk_can_msg_send</text>
</a>
</g>
</g>
<!-- Node27&#45;&gt;Node52 -->
<g id="edge26" class="edge">
<title>Node27&#45;&gt;Node52</title>
<path fill="none" stroke="#191970" d="M89.8163,-969.2433C94.3492,-916.0597 117.0487,-662.5813 140,-637 143.2504,-633.3771 147.0988,-630.4074 151.3011,-627.9772"/>
<polygon fill="#191970" stroke="#191970" points="152.7949,-631.1424 160.3456,-623.7102 149.8082,-624.8116 152.7949,-631.1424"/>
</g>
<!-- Node53&#45;&gt;Node42 -->
<g id="edge37" class="edge">
<title>Node53&#45;&gt;Node42</title>
<path fill="none" stroke="#191970" d="M90.2924,-380.5815C95.1788,-415.4282 113.5981,-534.7543 140,-561 141.687,-562.677 143.5028,-564.2114 145.4203,-565.615"/>
<polygon fill="#191970" stroke="#191970" points="144.0147,-568.8518 154.3961,-570.9678 147.6001,-562.8398 144.0147,-568.8518"/>
</g>
<!-- Node53&#45;&gt;Node49 -->
<g id="edge31" class="edge">
<title>Node53&#45;&gt;Node49</title>
<path fill="none" stroke="#191970" d="M91.0003,-380.7113C97.4189,-410.9736 118.344,-502.7569 140,-523 142.4715,-525.3102 145.1887,-527.3472 148.0764,-529.1425"/>
<polygon fill="#191970" stroke="#191970" points="146.6833,-532.362 157.1752,-533.8354 149.8921,-526.1408 146.6833,-532.362"/>
</g>
<!-- Node53&#45;&gt;Node50 -->
<g id="edge32" class="edge">
<title>Node53&#45;&gt;Node50</title>
<path fill="none" stroke="#191970" d="M89.2564,-380.7067C90.6922,-427.6121 99.2085,-630.3575 140,-675 141.6046,-676.7561 143.3497,-678.3582 145.2071,-679.8194"/>
<polygon fill="#191970" stroke="#191970" points="143.6591,-682.9815 153.9825,-685.3643 147.3983,-677.0638 143.6591,-682.9815"/>
</g>
<!-- Node53&#45;&gt;Node51 -->
<g id="edge41" class="edge">
<title>Node53&#45;&gt;Node51</title>
<path fill="none" stroke="#191970" d="M89.5051,-380.6267C91.9597,-423.7279 104.0265,-598.5366 140,-637 141.5887,-638.6987 143.3091,-640.2528 145.1349,-641.6742"/>
<polygon fill="#191970" stroke="#191970" points="143.4085,-644.7233 153.7348,-647.0936 147.1405,-638.8011 143.4085,-644.7233"/>
</g>
<!-- Node53&#45;&gt;Node52 -->
<g id="edge42" class="edge">
<title>Node53&#45;&gt;Node52</title>
<path fill="none" stroke="#191970" d="M89.83,-380.5448C93.4148,-419.597 108.8162,-566.6651 140,-599 143.2376,-602.3571 146.9899,-605.1466 151.0492,-607.4617"/>
<polygon fill="#191970" stroke="#191970" points="149.8046,-610.7433 160.3458,-611.8079 152.7692,-604.4021 149.8046,-610.7433"/>
</g>
<!-- Node54 -->
<g id="node29" class="node">
<title>Node54</title>
<g id="a_node29"><a xlink:href="hsk__can_8h.html#adf8bd1f3146a1dee87f7ba9164047f48" target="_top" xlink:title="Sets a signal value in a data field. ">
<polygon fill="none" stroke="#000000" points="151,-304.5 151,-323.5 274,-323.5 274,-304.5 151,-304.5"/>
<text text-anchor="middle" x="212.5" y="-311.5" font-family="Helvetica,sans-Serif" font-size="10.00" fill="#000000">hsk_can_data_setSignal</text>
</a>
</g>
</g>
<!-- Node53&#45;&gt;Node54 -->
<g id="edge28" class="edge">
<title>Node53&#45;&gt;Node54</title>
<path fill="none" stroke="#191970" d="M99.5393,-361.2198C109.3331,-352.6249 124.6762,-340.3707 140,-333 144.9102,-330.6382 150.1539,-328.5407 155.4906,-326.6842"/>
<polygon fill="#191970" stroke="#191970" points="156.6859,-329.9766 165.1452,-323.5977 154.5543,-323.3091 156.6859,-329.9766"/>
</g>
<!-- Node55 -->
<g id="node30" class="node">
<title>Node55</title>
<g id="a_node30"><a xlink:href="hsk__can_8h.html#a7ada35c7635c86614d5852553bdcaf88" target="_top" xlink:title="Get a signal value from a data field. ">
<polygon fill="none" stroke="#000000" points="151,-266.5 151,-285.5 274,-285.5 274,-266.5 151,-266.5"/>
<text text-anchor="middle" x="212.5" y="-273.5" font-family="Helvetica,sans-Serif" font-size="10.00" fill="#000000">hsk_can_data_getSignal</text>
</a>
</g>
</g>
<!-- Node53&#45;&gt;Node55 -->
<g id="edge29" class="edge">
<title>Node53&#45;&gt;Node55</title>
<path fill="none" stroke="#191970" d="M92.73,-361.4257C99.561,-345.183 115.6529,-312.3095 140,-295 142.7043,-293.0774 145.5891,-291.3493 148.5918,-289.7961"/>
<polygon fill="#191970" stroke="#191970" points="150.1882,-292.9163 157.8903,-285.6411 147.3324,-286.5253 150.1882,-292.9163"/>
</g>
<!-- Node56 -->
<g id="node31" class="node">
<title>Node56</title>
<g id="a_node31"><a xlink:href="hsk__icm7228_8h.html#af2d529b4b49b83318893ea24d9e13d12" target="_top" xlink:title="Write a 7 segment encoded, right aligned hexadecimal number into an xdata buffer. ...">
<polygon fill="none" stroke="#000000" points="153,-228.5 153,-247.5 272,-247.5 272,-228.5 153,-228.5"/>
<text text-anchor="middle" x="212.5" y="-235.5" font-family="Helvetica,sans-Serif" font-size="10.00" fill="#000000">hsk_icm7228_writeHex</text>
</a>
</g>
</g>
<!-- Node53&#45;&gt;Node56 -->
<g id="edge30" class="edge">
<title>Node53&#45;&gt;Node56</title>
<path fill="none" stroke="#191970" d="M90.4475,-361.3776C94.2764,-339.3873 106.7582,-285.1826 140,-257 141.9974,-255.3066 144.1288,-253.762 146.3608,-252.3533"/>
<polygon fill="#191970" stroke="#191970" points="148.1994,-255.3402 155.3978,-247.5662 144.9227,-249.1544 148.1994,-255.3402"/>
</g>
<!-- Node57 -->
<g id="node32" class="node">
<title>Node57</title>
<g id="a_node32"><a xlink:href="hsk__can_8h.html#ac4b1764cd14aa56ff998d8971950095c" target="_top" xlink:title="Creates a message FIFO. ">
<polygon fill="none" stroke="#000000" points="160.5,-190.5 160.5,-209.5 264.5,-209.5 264.5,-190.5 160.5,-190.5"/>
<text text-anchor="middle" x="212.5" y="-197.5" font-family="Helvetica,sans-Serif" font-size="10.00" fill="#000000">hsk_can_fifo_create</text>
</a>
</g>
</g>
<!-- Node53&#45;&gt;Node57 -->
<g id="edge33" class="edge">
<title>Node53&#45;&gt;Node57</title>
<path fill="none" stroke="#191970" d="M91.0003,-361.2887C97.4189,-331.0264 118.344,-239.2431 140,-219 143.3522,-215.8665 147.1567,-213.2357 151.2252,-211.0287"/>
<polygon fill="#191970" stroke="#191970" points="152.8111,-214.1528 160.4805,-206.8432 149.9267,-207.7747 152.8111,-214.1528"/>
</g>
<!-- Node58 -->
<g id="node33" class="node">
<title>Node58</title>
<g id="a_node33"><a xlink:href="hsk__can_8h.html#a643a555f878aafe55bbb2e308e358734" target="_top" xlink:title="Connect a FIFO to a CAN node. ">
<polygon fill="none" stroke="#000000" points="156.5,-152.5 156.5,-171.5 268.5,-171.5 268.5,-152.5 156.5,-152.5"/>
<text text-anchor="middle" x="212.5" y="-159.5" font-family="Helvetica,sans-Serif" font-size="10.00" fill="#000000">hsk_can_fifo_connect</text>
</a>
</g>
</g>
<!-- Node53&#45;&gt;Node58 -->
<g id="edge34" class="edge">
<title>Node53&#45;&gt;Node58</title>
<path fill="none" stroke="#191970" d="M90.2924,-361.4185C95.1788,-326.5718 113.5981,-207.2457 140,-181 142.2349,-178.7783 144.6958,-176.8069 147.32,-175.0584"/>
<polygon fill="#191970" stroke="#191970" points="149.0952,-178.0767 156.1797,-170.1987 145.7288,-171.9393 149.0952,-178.0767"/>
</g>
<!-- Node59 -->
<g id="node34" class="node">
<title>Node59</title>
<g id="a_node34"><a xlink:href="hsk__can_8h.html#abaa7f6ad68978c93fe3969b13360ee7a" target="_top" xlink:title="Set the FIFO up for receiving messages. ">
<polygon fill="none" stroke="#000000" points="155.5,-114.5 155.5,-133.5 269.5,-133.5 269.5,-114.5 155.5,-114.5"/>
<text text-anchor="middle" x="212.5" y="-121.5" font-family="Helvetica,sans-Serif" font-size="10.00" fill="#000000">hsk_can_fifo_setupRx</text>
</a>
</g>
</g>
<!-- Node53&#45;&gt;Node59 -->
<g id="edge35" class="edge">
<title>Node53&#45;&gt;Node59</title>
<path fill="none" stroke="#191970" d="M89.83,-361.4552C93.4148,-322.403 108.8162,-175.3349 140,-143 141.8968,-141.0331 143.9703,-139.2611 146.1787,-137.6652"/>
<polygon fill="#191970" stroke="#191970" points="148.4127,-140.4133 155.2772,-132.343 144.8783,-134.3711 148.4127,-140.4133"/>
</g>
<!-- Node60 -->
<g id="node35" class="node">
<title>Node60</title>
<g id="a_node35"><a xlink:href="hsk__can_8h.html#ac6877a5c7fe96e1e3a8eaccaf54a013c" target="_top" xlink:title="Changes the ID matching mask of an RX FIFO. ">
<polygon fill="none" stroke="#000000" points="148.5,-76.5 148.5,-95.5 276.5,-95.5 276.5,-76.5 148.5,-76.5"/>
<text text-anchor="middle" x="212.5" y="-83.5" font-family="Helvetica,sans-Serif" font-size="10.00" fill="#000000">hsk_can_fifo_setRxMask</text>
</a>
</g>
</g>
<!-- Node53&#45;&gt;Node60 -->
<g id="edge36" class="edge">
<title>Node53&#45;&gt;Node60</title>
<path fill="none" stroke="#191970" d="M89.5051,-361.3733C91.9597,-318.2721 104.0265,-143.4634 140,-105 141.2221,-103.6933 142.5221,-102.4722 143.888,-101.3312"/>
<polygon fill="#191970" stroke="#191970" points="146.009,-104.1226 152.35,-95.6348 142.0999,-98.3157 146.009,-104.1226"/>
</g>
<!-- Node61 -->
<g id="node36" class="node">
<title>Node61</title>
<g id="a_node36"><a xlink:href="hsk__adc_8h.html#a447e7bd775962054ffa80262bb676076" target="_top" xlink:title="Requests an ADC for a specific channel. ">
<polygon fill="none" stroke="#000000" points="167,-38.5 167,-57.5 258,-57.5 258,-38.5 167,-38.5"/>
<text text-anchor="middle" x="212.5" y="-45.5" font-family="Helvetica,sans-Serif" font-size="10.00" fill="#000000">hsk_adc_request</text>
</a>
</g>
</g>
<!-- Node53&#45;&gt;Node61 -->
<g id="edge38" class="edge">
<title>Node53&#45;&gt;Node61</title>
<path fill="none" stroke="#191970" d="M89.2564,-361.2933C90.6922,-314.3879 99.2085,-111.6425 140,-67 144.7177,-61.8369 150.6504,-58.0043 157.0799,-55.1711"/>
<polygon fill="#191970" stroke="#191970" points="158.5395,-58.3661 166.7717,-51.6967 156.1772,-51.7767 158.5395,-58.3661"/>
</g>
<!-- Node62 -->
<g id="node37" class="node">
<title>Node62</title>
<g id="a_node37"><a xlink:href="hsk__wdt_8h.html#a647944508e2a8f6ed9a3aee9e350b32d" target="_top" xlink:title="Resets the watchdog timer. ">
<polygon fill="none" stroke="#000000" points="167.5,-.5 167.5,-19.5 257.5,-19.5 257.5,-.5 167.5,-.5"/>
<text text-anchor="middle" x="212.5" y="-7.5" font-family="Helvetica,sans-Serif" font-size="10.00" fill="#000000">hsk_wdt_service</text>
</a>
</g>
</g>
<!-- Node53&#45;&gt;Node62 -->
<g id="edge39" class="edge">
<title>Node53&#45;&gt;Node62</title>
<path fill="none" stroke="#191970" d="M89.8163,-361.2433C94.3492,-308.0597 117.0487,-54.5813 140,-29 144.8987,-23.54 151.1557,-19.5633 157.9352,-16.6815"/>
<polygon fill="#191970" stroke="#191970" points="159.1221,-19.9745 167.4254,-13.3939 156.8306,-13.3602 159.1221,-19.9745"/>
</g>
<!-- Node63 -->
<g id="node38" class="node">
<title>Node63</title>
<g id="a_node38"><a xlink:href="hsk__pwc_8h.html#a43921507c6e1ab277bf62fd952dc909e" target="_top" xlink:title="Returns a measure of the values in a channel buffer. ">
<polygon fill="none" stroke="#000000" points="143.5,-494.5 143.5,-513.5 281.5,-513.5 281.5,-494.5 143.5,-494.5"/>
<text text-anchor="middle" x="212.5" y="-501.5" font-family="Helvetica,sans-Serif" font-size="10.00" fill="#000000">hsk_pwc_channel_getValue</text>
</a>
</g>
</g>
<!-- Node53&#45;&gt;Node63 -->
<g id="edge40" class="edge">
<title>Node53&#45;&gt;Node63</title>
<path fill="none" stroke="#191970" d="M90.4475,-380.6224C94.2764,-402.6127 106.7582,-456.8174 140,-485 141.9974,-486.6934 144.1288,-488.238 146.3608,-489.6467"/>
<polygon fill="#191970" stroke="#191970" points="144.9227,-492.8456 155.3978,-494.4338 148.1994,-486.6598 144.9227,-492.8456"/>
</g>
<!-- Node64 -->
<g id="node39" class="node">
<title>Node64</title>
<g id="a_node39"><a xlink:href="hsk__can_8h.html#ae827521a839dae2fb903a58da4027008" target="_top" xlink:title="Return whether the currently selected FIFO entry was updated via CAN bus between this call and the pr...">
<polygon fill="none" stroke="#000000" points="156.5,-456.5 156.5,-475.5 268.5,-475.5 268.5,-456.5 156.5,-456.5"/>
<text text-anchor="middle" x="212.5" y="-463.5" font-family="Helvetica,sans-Serif" font-size="10.00" fill="#000000">hsk_can_fifo_updated</text>
</a>
</g>
</g>
<!-- Node53&#45;&gt;Node64 -->
<g id="edge43" class="edge">
<title>Node53&#45;&gt;Node64</title>
<path fill="none" stroke="#191970" d="M92.73,-380.5743C99.561,-396.817 115.6529,-429.6905 140,-447 142.7043,-448.9226 145.5891,-450.6507 148.5918,-452.2039"/>
<polygon fill="#191970" stroke="#191970" points="147.3324,-455.4747 157.8903,-456.3589 150.1882,-449.0837 147.3324,-455.4747"/>
</g>
<!-- Node65 -->
<g id="node40" class="node">
<title>Node65</title>
<g id="a_node40"><a xlink:href="hsk__can_8h.html#a38bc6dfad832efea395a55f3c810e157" target="_top" xlink:title="Returns the CAN ID of the selected FIFO entry. ">
<polygon fill="none" stroke="#000000" points="163,-418.5 163,-437.5 262,-437.5 262,-418.5 163,-418.5"/>
<text text-anchor="middle" x="212.5" y="-425.5" font-family="Helvetica,sans-Serif" font-size="10.00" fill="#000000">hsk_can_fifo_getId</text>
</a>
</g>
</g>
<!-- Node53&#45;&gt;Node65 -->
<g id="edge44" class="edge">
<title>Node53&#45;&gt;Node65</title>
<path fill="none" stroke="#191970" d="M99.5393,-380.7802C109.3331,-389.3751 124.6762,-401.6293 140,-409 144.9102,-411.3618 150.1539,-413.4593 155.4906,-415.3158"/>
<polygon fill="#191970" stroke="#191970" points="154.5543,-418.6909 165.1452,-418.4023 156.6859,-412.0234 154.5543,-418.6909"/>
</g>
<!-- Node66 -->
<g id="node41" class="node">
<title>Node66</title>
<g id="a_node41"><a xlink:href="hsk__can_8h.html#ae45df92cb26b61109a137690d15ca10f" target="_top" xlink:title="Gets the data from the currently selected FIFO entry. ">
<polygon fill="none" stroke="#000000" points="156.5,-380.5 156.5,-399.5 268.5,-399.5 268.5,-380.5 156.5,-380.5"/>
<text text-anchor="middle" x="212.5" y="-387.5" font-family="Helvetica,sans-Serif" font-size="10.00" fill="#000000">hsk_can_fifo_getData</text>
</a>
</g>
</g>
<!-- Node53&#45;&gt;Node66 -->
<g id="edge45" class="edge">
<title>Node53&#45;&gt;Node66</title>
<path fill="none" stroke="#191970" d="M104.1435,-373.3298C115.0248,-375.0038 130.5223,-377.388 146.405,-379.8315"/>
<polygon fill="#191970" stroke="#191970" points="145.8903,-383.2935 156.3062,-381.3548 146.9548,-376.3748 145.8903,-383.2935"/>
</g>
<!-- Node67 -->
<g id="node42" class="node">
<title>Node67</title>
<g id="a_node42"><a xlink:href="hsk__can_8h.html#aab78f3398ef8049c8ba186785b4886d6" target="_top" xlink:title="Select the next FIFO entry. ">
<polygon fill="none" stroke="#000000" points="164.5,-342.5 164.5,-361.5 260.5,-361.5 260.5,-342.5 164.5,-342.5"/>
<text text-anchor="middle" x="212.5" y="-349.5" font-family="Helvetica,sans-Serif" font-size="10.00" fill="#000000">hsk_can_fifo_next</text>
</a>
</g>
</g>
<!-- Node53&#45;&gt;Node67 -->
<g id="edge46" class="edge">
<title>Node53&#45;&gt;Node67</title>
<path fill="none" stroke="#191970" d="M104.1435,-368.6702C116.8648,-366.7131 135.8954,-363.7853 154.4747,-360.927"/>
<polygon fill="#191970" stroke="#191970" points="155.0576,-364.3786 164.4091,-359.3986 153.9932,-357.46 155.0576,-364.3786"/>
</g>
</g>
</svg>
