<?xml version="1.0" encoding="UTF-8" standalone="no"?>
<!DOCTYPE svg PUBLIC "-//W3C//DTD SVG 1.1//EN"
 "http://www.w3.org/Graphics/SVG/1.1/DTD/svg11.dtd">
<!-- Generated by graphviz version 2.40.1 (20161225.0304)
 -->
<!-- Title: main.c Pages: 1 -->
<!--zoomable 140 -->
<svg id="main" version="1.1" xmlns="http://www.w3.org/2000/svg" xmlns:xlink="http://www.w3.org/1999/xlink" xml:space="preserve" onload="init(evt)">
<style type="text/css"><![CDATA[
.edge:hover path { stroke: red; }
.edge:hover polygon { stroke: red; fill: red; }
]]></style>
<script type="text/javascript"><![CDATA[
var edges = document.getElementsByTagName('g');
if (edges && edges.length) {
  for (var i=0;i<edges.length;i++) {
    if (edges[i].id.substr(0,4)=='edge') {
      edges[i].setAttribute('class','edge');
    }
  }
}
]]></script>
        <defs>
                <circle id="rim" cx="0" cy="0" r="7"/>
                <circle id="rim2" cx="0" cy="0" r="3.5"/>
                <g id="zoomPlus">
                        <use xlink:href="#rim" fill="#404040">
                                <set attributeName="fill" to="#808080" begin="zoomplus.mouseover" end="zoomplus.mouseout"/>
                        </use>
                        <path d="M-4,0h8M0,-4v8" fill="none" stroke="white" stroke-width="1.5" pointer-events="none"/>
                </g>
                <g id="zoomMin">
                        <use xlink:href="#rim" fill="#404040">
                                <set attributeName="fill" to="#808080" begin="zoomminus.mouseover" end="zoomminus.mouseout"/>
                        </use>
                        <path d="M-4,0h8" fill="none" stroke="white" stroke-width="1.5" pointer-events="none"/>
                </g>
                <g id="dirArrow">
                        <path fill="none" stroke="white" stroke-width="1.5" d="M0,-3.0v7 M-2.5,-0.5L0,-3.0L2.5,-0.5"/>
                </g>
               <g id="resetDef">
                       <use xlink:href="#rim2" fill="#404040">
                               <set attributeName="fill" to="#808080" begin="reset.mouseover" end="reset.mouseout"/>
                       </use>
               </g>
        </defs>

<script type="text/javascript">
var viewWidth = 1447;
var viewHeight = 140;
var sectionId = 'dynsection-0';
</script>
<script xlink:href="svgpan.js"/>
<svg id="graph" class="graph">
<g id="viewport">
<title>main.c</title>
<!-- Node0 -->
<g id="node1" class="node">
<title>Node0</title>
<polygon fill="#bfbfbf" stroke="#000000" points="698,-112.5 698,-131.5 744,-131.5 744,-112.5 698,-112.5"/>
<text text-anchor="middle" x="721" y="-119.5" font-family="Helvetica,sans-Serif" font-size="10.00" fill="#000000">main.c</text>
</g>
<!-- Node1 -->
<g id="node2" class="node">
<title>Node1</title>
<polygon fill="none" stroke="#bfbfbf" points="0,-56.5 0,-75.5 92,-75.5 92,-56.5 0,-56.5"/>
<text text-anchor="middle" x="46" y="-63.5" font-family="Helvetica,sans-Serif" font-size="10.00" fill="#000000">Infineon/XC878.h</text>
</g>
<!-- Node0&#45;&gt;Node1 -->
<g id="edge1" class="edge">
<title>Node0&#45;&gt;Node1</title>
<path fill="none" stroke="#191970" d="M697.8287,-121.1657C617.1232,-118.0747 340.777,-105.9377 102.4058,-76.0569"/>
<polygon fill="#191970" stroke="#191970" points="102.5192,-72.5433 92.1585,-74.7583 101.6391,-79.4878 102.5192,-72.5433"/>
</g>
<!-- Node2 -->
<g id="node3" class="node">
<title>Node2</title>
<g id="a_node3"><a xlink:href="config_8h.html" target="_top" xlink:title="Configuration for the Infineon XC800 Starter Kit. ">
<polygon fill="none" stroke="#000000" points="110.5,-56.5 110.5,-75.5 161.5,-75.5 161.5,-56.5 110.5,-56.5"/>
<text text-anchor="middle" x="136" y="-63.5" font-family="Helvetica,sans-Serif" font-size="10.00" fill="#000000">config.h</text>
</a>
</g>
</g>
<!-- Node0&#45;&gt;Node2 -->
<g id="edge2" class="edge">
<title>Node0&#45;&gt;Node2</title>
<path fill="none" stroke="#191970" d="M697.9463,-121.742C623.064,-120.5562 379.928,-113.975 171.7433,-76.0236"/>
<polygon fill="#191970" stroke="#191970" points="172.3272,-72.5723 161.857,-74.1926 171.0524,-79.4552 172.3272,-72.5723"/>
</g>
<!-- Node3 -->
<g id="node4" class="node">
<title>Node3</title>
<g id="a_node4"><a xlink:href="hsk__boot_8h.html" target="_top" xlink:title="HSK Boot headers. ">
<polygon fill="none" stroke="#000000" points="606.5,-56.5 606.5,-75.5 713.5,-75.5 713.5,-56.5 606.5,-56.5"/>
<text text-anchor="middle" x="660" y="-63.5" font-family="Helvetica,sans-Serif" font-size="10.00" fill="#000000">hsk_boot/hsk_boot.h</text>
</a>
</g>
</g>
<!-- Node0&#45;&gt;Node3 -->
<g id="edge3" class="edge">
<title>Node0&#45;&gt;Node3</title>
<path fill="none" stroke="#191970" d="M710.3746,-112.2455C701.4527,-104.0549 688.512,-92.1749 677.9808,-82.5069"/>
<polygon fill="#191970" stroke="#191970" points="680.2371,-79.8271 670.5036,-75.6427 675.5032,-84.9837 680.2371,-79.8271"/>
</g>
<!-- Node5 -->
<g id="node6" class="node">
<title>Node5</title>
<g id="a_node6"><a xlink:href="hsk__timer01_8h.html" target="_top" xlink:title="HSK Timer 0/1 headers. ">
<polygon fill="none" stroke="#000000" points="179.5,-56.5 179.5,-75.5 308.5,-75.5 308.5,-56.5 179.5,-56.5"/>
<text text-anchor="middle" x="244" y="-63.5" font-family="Helvetica,sans-Serif" font-size="10.00" fill="#000000">hsk_timers/hsk_timer01.h</text>
</a>
</g>
</g>
<!-- Node0&#45;&gt;Node5 -->
<g id="edge5" class="edge">
<title>Node0&#45;&gt;Node5</title>
<path fill="none" stroke="#191970" d="M697.8101,-119.5227C637.3507,-113.028 469.7131,-94.7901 318.4988,-76.0404"/>
<polygon fill="#191970" stroke="#191970" points="318.9192,-72.5658 308.5636,-74.8048 318.0552,-79.5123 318.9192,-72.5658"/>
</g>
<!-- Node7 -->
<g id="node8" class="node">
<title>Node7</title>
<g id="a_node8"><a xlink:href="hsk__can_8h.html" target="_top" xlink:title="HSK Controller Area Network headers. ">
<polygon fill="none" stroke="#000000" points="487.5,-56.5 487.5,-75.5 588.5,-75.5 588.5,-56.5 487.5,-56.5"/>
<text text-anchor="middle" x="538" y="-63.5" font-family="Helvetica,sans-Serif" font-size="10.00" fill="#000000">hsk_can/hsk_can.h</text>
</a>
</g>
</g>
<!-- Node0&#45;&gt;Node7 -->
<g id="edge7" class="edge">
<title>Node0&#45;&gt;Node7</title>
<path fill="none" stroke="#191970" d="M697.8229,-114.9076C668.0208,-105.7878 615.752,-89.793 579.1265,-78.5852"/>
<polygon fill="#191970" stroke="#191970" points="579.8293,-75.1401 569.2428,-75.5606 577.7809,-81.8337 579.8293,-75.1401"/>
</g>
<!-- Node8 -->
<g id="node9" class="node">
<title>Node8</title>
<g id="a_node9"><a xlink:href="hsk__icm7228_8h.html" target="_top" xlink:title="HSK ICM7228 8&#45;Digit LED Display Decoder Driver generator. ">
<polygon fill="none" stroke="#000000" points="326.5,-56.5 326.5,-75.5 469.5,-75.5 469.5,-56.5 326.5,-56.5"/>
<text text-anchor="middle" x="398" y="-63.5" font-family="Helvetica,sans-Serif" font-size="10.00" fill="#000000">hsk_icm7228/hsk_icm7228.h</text>
</a>
</g>
</g>
<!-- Node0&#45;&gt;Node8 -->
<g id="edge8" class="edge">
<title>Node0&#45;&gt;Node8</title>
<path fill="none" stroke="#191970" d="M697.7706,-117.9726C649.2101,-109.5534 535.4526,-89.8308 462.8725,-77.2472"/>
<polygon fill="#191970" stroke="#191970" points="463.3664,-73.7807 452.9154,-75.5209 462.1705,-80.6778 463.3664,-73.7807"/>
</g>
<!-- Node10 -->
<g id="node11" class="node">
<title>Node10</title>
<g id="a_node11"><a xlink:href="hsk__adc_8h.html" target="_top" xlink:title="HSK Analog Digital Conversion headers. ">
<polygon fill="none" stroke="#000000" points="731.5,-56.5 731.5,-75.5 832.5,-75.5 832.5,-56.5 731.5,-56.5"/>
<text text-anchor="middle" x="782" y="-63.5" font-family="Helvetica,sans-Serif" font-size="10.00" fill="#000000">hsk_adc/hsk_adc.h</text>
</a>
</g>
</g>
<!-- Node0&#45;&gt;Node10 -->
<g id="edge10" class="edge">
<title>Node0&#45;&gt;Node10</title>
<path fill="none" stroke="#191970" d="M731.6254,-112.2455C740.5473,-104.0549 753.488,-92.1749 764.0192,-82.5069"/>
<polygon fill="#191970" stroke="#191970" points="766.4968,-84.9837 771.4964,-75.6427 761.7629,-79.8271 766.4968,-84.9837"/>
</g>
<!-- Node11 -->
<g id="node12" class="node">
<title>Node11</title>
<g id="a_node12"><a xlink:href="hsk__pwm_8h.html" target="_top" xlink:title="HSK Pulse Width Modulation headers. ">
<polygon fill="none" stroke="#000000" points="851,-56.5 851,-75.5 963,-75.5 963,-56.5 851,-56.5"/>
<text text-anchor="middle" x="907" y="-63.5" font-family="Helvetica,sans-Serif" font-size="10.00" fill="#000000">hsk_pwm/hsk_pwm.h</text>
</a>
</g>
</g>
<!-- Node0&#45;&gt;Node11 -->
<g id="edge12" class="edge">
<title>Node0&#45;&gt;Node11</title>
<path fill="none" stroke="#191970" d="M744.181,-115.0208C774.5754,-105.8698 828.4169,-89.6594 865.8248,-78.3968"/>
<polygon fill="#191970" stroke="#191970" points="866.8648,-81.739 875.4312,-75.5046 864.8467,-75.0362 866.8648,-81.739"/>
</g>
<!-- Node12 -->
<g id="node13" class="node">
<title>Node12</title>
<g id="a_node13"><a xlink:href="hsk__pwc_8h.html" target="_top" xlink:title="HSK Pulse Width Counter headers. ">
<polygon fill="none" stroke="#000000" points="981,-56.5 981,-75.5 1087,-75.5 1087,-56.5 981,-56.5"/>
<text text-anchor="middle" x="1034" y="-63.5" font-family="Helvetica,sans-Serif" font-size="10.00" fill="#000000">hsk_pwc/hsk_pwc.h</text>
</a>
</g>
</g>
<!-- Node0&#45;&gt;Node12 -->
<g id="edge13" class="edge">
<title>Node0&#45;&gt;Node12</title>
<path fill="none" stroke="#191970" d="M744.0156,-117.8822C791.2465,-109.4319 900.5629,-89.8737 970.665,-77.3315"/>
<polygon fill="#191970" stroke="#191970" points="971.484,-80.7406 980.7113,-75.5341 970.2511,-73.85 971.484,-80.7406"/>
</g>
<!-- Node13 -->
<g id="node14" class="node">
<title>Node13</title>
<g id="a_node14"><a xlink:href="hsk__flash_8h.html" target="_top" xlink:title="HSK Flash Facility headers. ">
<polygon fill="none" stroke="#000000" points="1105,-56.5 1105,-75.5 1217,-75.5 1217,-56.5 1105,-56.5"/>
<text text-anchor="middle" x="1161" y="-63.5" font-family="Helvetica,sans-Serif" font-size="10.00" fill="#000000">hsk_flash/hsk_flash.h</text>
</a>
</g>
</g>
<!-- Node0&#45;&gt;Node13 -->
<g id="edge15" class="edge">
<title>Node0&#45;&gt;Node13</title>
<path fill="none" stroke="#191970" d="M744.2907,-119.394C801.8605,-112.8992 955.6882,-95.2211 1094.9928,-76.1059"/>
<polygon fill="#191970" stroke="#191970" points="1095.5676,-79.5598 1104.9961,-74.7272 1094.6118,-72.6254 1095.5676,-79.5598"/>
</g>
<!-- Node14 -->
<g id="node15" class="node">
<title>Node14</title>
<g id="a_node15"><a xlink:href="hsk__wdt_8h.html" target="_top" xlink:title="HSK Watchdog Timer headers. ">
<polygon fill="none" stroke="#000000" points="1235.5,-56.5 1235.5,-75.5 1336.5,-75.5 1336.5,-56.5 1235.5,-56.5"/>
<text text-anchor="middle" x="1286" y="-63.5" font-family="Helvetica,sans-Serif" font-size="10.00" fill="#000000">hsk_wdt/hsk_wdt.h</text>
</a>
</g>
</g>
<!-- Node0&#45;&gt;Node14 -->
<g id="edge17" class="edge">
<title>Node0&#45;&gt;Node14</title>
<path fill="none" stroke="#191970" d="M744.2214,-120.5017C814.8162,-115.8171 1033.2487,-100.3639 1225.3071,-76.0009"/>
<polygon fill="#191970" stroke="#191970" points="1225.8254,-79.4632 1235.3002,-74.722 1224.9368,-72.5198 1225.8254,-79.4632"/>
</g>
<!-- Node15 -->
<g id="node16" class="node">
<title>Node15</title>
<g id="a_node16"><a xlink:href="hsk__io_8h.html" target="_top" xlink:title="HSK I/O headers. ">
<polygon fill="none" stroke="#000000" points="1354.5,-56.5 1354.5,-75.5 1439.5,-75.5 1439.5,-56.5 1354.5,-56.5"/>
<text text-anchor="middle" x="1397" y="-63.5" font-family="Helvetica,sans-Serif" font-size="10.00" fill="#000000">hsk_io/hsk_io.h</text>
</a>
</g>
</g>
<!-- Node0&#45;&gt;Node15 -->
<g id="edge18" class="edge">
<title>Node0&#45;&gt;Node15</title>
<path fill="none" stroke="#191970" d="M744.0881,-121.3019C825.165,-118.6412 1104.493,-107.7044 1344.5283,-76.0604"/>
<polygon fill="#191970" stroke="#191970" points="1345.0371,-79.5236 1354.4867,-74.7325 1344.1118,-72.585 1345.0371,-79.5236"/>
</g>
<!-- Node4 -->
<g id="node5" class="node">
<title>Node4</title>
<polygon fill="none" stroke="#bfbfbf" points="855.5,-.5 855.5,-19.5 960.5,-19.5 960.5,-.5 855.5,-.5"/>
<text text-anchor="middle" x="908" y="-7.5" font-family="Helvetica,sans-Serif" font-size="10.00" fill="#000000">../hsk_isr/hsk_isr.isr</text>
</g>
<!-- Node3&#45;&gt;Node4 -->
<g id="edge4" class="edge">
<title>Node3&#45;&gt;Node4</title>
<path fill="none" stroke="#191970" d="M702.3509,-56.4369C744.7942,-46.8529 810.2119,-32.0812 855.8313,-21.78"/>
<polygon fill="#191970" stroke="#191970" points="856.8403,-25.1404 865.8237,-19.5237 855.2984,-18.3123 856.8403,-25.1404"/>
</g>
<!-- Node6 -->
<g id="node7" class="node">
<title>Node6</title>
<polygon fill="none" stroke="#bfbfbf" points="202.5,-.5 202.5,-19.5 285.5,-19.5 285.5,-.5 202.5,-.5"/>
<text text-anchor="middle" x="244" y="-7.5" font-family="Helvetica,sans-Serif" font-size="10.00" fill="#000000">hsk_timer01.isr</text>
</g>
<!-- Node5&#45;&gt;Node6 -->
<g id="edge6" class="edge">
<title>Node5&#45;&gt;Node6</title>
<path fill="none" stroke="#191970" d="M244,-56.2455C244,-48.9382 244,-38.6944 244,-29.7046"/>
<polygon fill="#191970" stroke="#191970" points="247.5001,-29.6426 244,-19.6427 240.5001,-29.6427 247.5001,-29.6426"/>
</g>
<!-- Node9 -->
<g id="node10" class="node">
<title>Node9</title>
<polygon fill="none" stroke="#bfbfbf" points="373.5,-.5 373.5,-19.5 422.5,-19.5 422.5,-.5 373.5,-.5"/>
<text text-anchor="middle" x="398" y="-7.5" font-family="Helvetica,sans-Serif" font-size="10.00" fill="#000000">string.h</text>
</g>
<!-- Node8&#45;&gt;Node9 -->
<g id="edge9" class="edge">
<title>Node8&#45;&gt;Node9</title>
<path fill="none" stroke="#191970" d="M398,-56.2455C398,-48.9382 398,-38.6944 398,-29.7046"/>
<polygon fill="#191970" stroke="#191970" points="401.5001,-29.6426 398,-19.6427 394.5001,-29.6427 401.5001,-29.6426"/>
</g>
<!-- Node10&#45;&gt;Node4 -->
<g id="edge11" class="edge">
<title>Node10&#45;&gt;Node4</title>
<path fill="none" stroke="#191970" d="M803.6602,-56.3733C823.9772,-47.3435 854.564,-33.7494 877.375,-23.6111"/>
<polygon fill="#191970" stroke="#191970" points="878.9059,-26.7609 886.6225,-19.5011 876.0628,-20.3642 878.9059,-26.7609"/>
</g>
<!-- Node12&#45;&gt;Node4 -->
<g id="edge14" class="edge">
<title>Node12&#45;&gt;Node4</title>
<path fill="none" stroke="#191970" d="M1012.3398,-56.3733C992.0228,-47.3435 961.436,-33.7494 938.625,-23.6111"/>
<polygon fill="#191970" stroke="#191970" points="939.9372,-20.3642 929.3775,-19.5011 937.0941,-26.7609 939.9372,-20.3642"/>
</g>
<!-- Node13&#45;&gt;Node4 -->
<g id="edge16" class="edge">
<title>Node13&#45;&gt;Node4</title>
<path fill="none" stroke="#191970" d="M1117.7952,-56.4369C1074.4053,-46.8328 1007.4791,-32.0191 960.9274,-21.7152"/>
<polygon fill="#191970" stroke="#191970" points="961.5467,-18.2676 951.0266,-19.5237 960.0338,-25.1022 961.5467,-18.2676"/>
</g>
</g>
</svg>
        <g id="navigator" transform="translate(0 0)" fill="#404254">
                <rect fill="#f2f5e9" fill-opacity="0.5" stroke="#606060" stroke-width=".5" x="0" y="0" width="60" height="60"/>
                <use id="zoomplus" xlink:href="#zoomPlus" x="17" y="9" onmousedown="handleZoom(evt,'in')"/>
                <use id="zoomminus" xlink:href="#zoomMin" x="42" y="9" onmousedown="handleZoom(evt,'out')"/>
                <use id="reset" xlink:href="#resetDef" x="30" y="36" onmousedown="handleReset()"/>
                <g id="arrowUp" xlink:href="#dirArrow" transform="translate(30 24)" onmousedown="handlePan(0,-1)">
                  <use xlink:href="#rim" fill="#404040">
                        <set attributeName="fill" to="#808080" begin="arrowUp.mouseover" end="arrowUp.mouseout"/>
                  </use>
                  <path fill="none" stroke="white" stroke-width="1.5" d="M0,-3.0v7 M-2.5,-0.5L0,-3.0L2.5,-0.5"/>
                </g>
                <g id="arrowRight" xlink:href="#dirArrow" transform="rotate(90) translate(36 -43)" onmousedown="handlePan(1,0)">
                  <use xlink:href="#rim" fill="#404040">
                        <set attributeName="fill" to="#808080" begin="arrowRight.mouseover" end="arrowRight.mouseout"/>
                  </use>
                  <path fill="none" stroke="white" stroke-width="1.5" d="M0,-3.0v7 M-2.5,-0.5L0,-3.0L2.5,-0.5"/>
                </g>
                <g id="arrowDown" xlink:href="#dirArrow" transform="rotate(180) translate(-30 -48)" onmousedown="handlePan(0,1)">
                  <use xlink:href="#rim" fill="#404040">
                        <set attributeName="fill" to="#808080" begin="arrowDown.mouseover" end="arrowDown.mouseout"/>
                  </use>
                  <path fill="none" stroke="white" stroke-width="1.5" d="M0,-3.0v7 M-2.5,-0.5L0,-3.0L2.5,-0.5"/>
                </g>
                <g id="arrowLeft" xlink:href="#dirArrow" transform="rotate(270) translate(-36 17)" onmousedown="handlePan(-1,0)">
                  <use xlink:href="#rim" fill="#404040">
                        <set attributeName="fill" to="#808080" begin="arrowLeft.mouseover" end="arrowLeft.mouseout"/>
                  </use>
                  <path fill="none" stroke="white" stroke-width="1.5" d="M0,-3.0v7 M-2.5,-0.5L0,-3.0L2.5,-0.5"/>
                </g>
        </g>
        <svg viewBox="0 0 15 15" width="100%" height="30px" preserveAspectRatio="xMaxYMin meet">
         <g id="arrow_out" transform="scale(0.3 0.3)">
          <a xlink:href="main_8c__incl_org.svg" target="_base">
           <rect id="button" ry="5" rx="5" y="6" x="6" height="38" width="38"
                fill="#f2f5e9" fill-opacity="0.5" stroke="#606060" stroke-width="1.0"/>
           <path id="arrow"
             d="M 11.500037,31.436501 C 11.940474,20.09759 22.043105,11.32322 32.158766,21.979434 L 37.068811,17.246167 C 37.068811,17.246167 37.088388,32 37.088388,32 L 22.160133,31.978069 C 22.160133,31.978069 26.997745,27.140456 26.997745,27.140456 C 18.528582,18.264221 13.291696,25.230495 11.500037,31.436501 z"
             style="fill:#404040;"/>
          </a>
         </g>
        </svg>
</svg>
