<?xml version="1.0" encoding="UTF-8" standalone="no"?>
<!DOCTYPE svg PUBLIC "-//W3C//DTD SVG 1.1//EN"
 "http://www.w3.org/Graphics/SVG/1.1/DTD/svg11.dtd">
<!-- Generated by graphviz version 2.40.1 (20161225.0304)
 -->
<!-- Title: run Pages: 1 -->
<!--zoomable 712 -->
<svg id="main" version="1.1" xmlns="http://www.w3.org/2000/svg" xmlns:xlink="http://www.w3.org/1999/xlink" xml:space="preserve" onload="init(evt)">
<style type="text/css"><![CDATA[
.edge:hover path { stroke: red; }
.edge:hover polygon { stroke: red; fill: red; }
]]></style>
<script type="text/javascript"><![CDATA[
var edges = document.getElementsByTagName('g');
if (edges && edges.length) {
  for (var i=0;i<edges.length;i++) {
    if (edges[i].id.substr(0,4)=='edge') {
      edges[i].setAttribute('class','edge');
    }
  }
}
]]></script>
        <defs>
                <circle id="rim" cx="0" cy="0" r="7"/>
                <circle id="rim2" cx="0" cy="0" r="3.5"/>
                <g id="zoomPlus">
                        <use xlink:href="#rim" fill="#404040">
                                <set attributeName="fill" to="#808080" begin="zoomplus.mouseover" end="zoomplus.mouseout"/>
                        </use>
                        <path d="M-4,0h8M0,-4v8" fill="none" stroke="white" stroke-width="1.5" pointer-events="none"/>
                </g>
                <g id="zoomMin">
                        <use xlink:href="#rim" fill="#404040">
                                <set attributeName="fill" to="#808080" begin="zoomminus.mouseover" end="zoomminus.mouseout"/>
                        </use>
                        <path d="M-4,0h8" fill="none" stroke="white" stroke-width="1.5" pointer-events="none"/>
                </g>
                <g id="dirArrow">
                        <path fill="none" stroke="white" stroke-width="1.5" d="M0,-3.0v7 M-2.5,-0.5L0,-3.0L2.5,-0.5"/>
                </g>
               <g id="resetDef">
                       <use xlink:href="#rim2" fill="#404040">
                               <set attributeName="fill" to="#808080" begin="reset.mouseover" end="reset.mouseout"/>
                       </use>
               </g>
        </defs>

<script type="text/javascript">
var viewWidth = 212;
var viewHeight = 712;
var sectionId = 'dynsection-3';
</script>
<script xlink:href="svgpan.js"/>
<svg id="graph" class="graph">
<g id="viewport">
<title>run</title>
<!-- Node74 -->
<g id="node1" class="node">
<title>Node74</title>
<polygon fill="#bfbfbf" stroke="#000000" points="0,-342.5 0,-361.5 30,-361.5 30,-342.5 0,-342.5"/>
<text text-anchor="middle" x="15" y="-349.5" font-family="Helvetica,sans-Serif" font-size="10.00" fill="#000000">run</text>
</g>
<!-- Node75 -->
<g id="node2" class="node">
<title>Node75</title>
<g id="a_node2"><a xlink:href="hsk__can_8h.html#adf8bd1f3146a1dee87f7ba9164047f48" target="_top" xlink:title="Sets a signal value in a data field. ">
<polygon fill="none" stroke="#000000" points="73.5,-684.5 73.5,-703.5 196.5,-703.5 196.5,-684.5 73.5,-684.5"/>
<text text-anchor="middle" x="135" y="-691.5" font-family="Helvetica,sans-Serif" font-size="10.00" fill="#000000">hsk_can_data_setSignal</text>
</a>
</g>
</g>
<!-- Node74&#45;&gt;Node75 -->
<g id="edge1" class="edge">
<title>Node74&#45;&gt;Node75</title>
<path fill="none" stroke="#191970" d="M15.1621,-361.6462C16.172,-410.1499 23.0615,-626.9565 66,-675 67.0609,-676.187 68.1884,-677.3027 69.3732,-678.3514"/>
<polygon fill="#191970" stroke="#191970" points="67.7276,-681.472 77.9259,-684.3433 71.744,-675.7389 67.7276,-681.472"/>
</g>
<!-- Node76 -->
<g id="node3" class="node">
<title>Node76</title>
<g id="a_node3"><a xlink:href="hsk__can_8h.html#a7ada35c7635c86614d5852553bdcaf88" target="_top" xlink:title="Get a signal value from a data field. ">
<polygon fill="none" stroke="#000000" points="73.5,-646.5 73.5,-665.5 196.5,-665.5 196.5,-646.5 73.5,-646.5"/>
<text text-anchor="middle" x="135" y="-653.5" font-family="Helvetica,sans-Serif" font-size="10.00" fill="#000000">hsk_can_data_getSignal</text>
</a>
</g>
</g>
<!-- Node74&#45;&gt;Node76 -->
<g id="edge2" class="edge">
<title>Node74&#45;&gt;Node76</title>
<path fill="none" stroke="#191970" d="M15.3858,-361.6876C17.3734,-406.7269 27.8876,-595.225 66,-637 67.209,-638.3252 68.5011,-639.5614 69.8631,-640.7143"/>
<polygon fill="#191970" stroke="#191970" points="68.0922,-643.742 78.3356,-646.4483 72.0156,-637.9449 68.0922,-643.742"/>
</g>
<!-- Node77 -->
<g id="node4" class="node">
<title>Node77</title>
<g id="a_node4"><a xlink:href="hsk__icm7228_8h.html#af2d529b4b49b83318893ea24d9e13d12" target="_top" xlink:title="Write a 7 segment encoded, right aligned hexadecimal number into an xdata buffer. ...">
<polygon fill="none" stroke="#000000" points="75.5,-608.5 75.5,-627.5 194.5,-627.5 194.5,-608.5 75.5,-608.5"/>
<text text-anchor="middle" x="135" y="-615.5" font-family="Helvetica,sans-Serif" font-size="10.00" fill="#000000">hsk_icm7228_writeHex</text>
</a>
</g>
</g>
<!-- Node74&#45;&gt;Node77 -->
<g id="edge3" class="edge">
<title>Node74&#45;&gt;Node77</title>
<path fill="none" stroke="#191970" d="M15.6804,-361.7559C18.7575,-403.1114 32.6941,-563.4526 66,-599 67.2265,-600.3091 68.5341,-601.5309 69.9098,-602.6712"/>
<polygon fill="#191970" stroke="#191970" points="68.1782,-605.723 78.4422,-608.3498 72.0565,-599.8955 68.1782,-605.723"/>
</g>
<!-- Node78 -->
<g id="node5" class="node">
<title>Node78</title>
<g id="a_node5"><a xlink:href="hsk__can_8h.html#a48d89d605eb1f79774d1a5a86bf387bc" target="_top" xlink:title="Creates a new CAN message. ">
<polygon fill="none" stroke="#000000" points="80,-570.5 80,-589.5 190,-589.5 190,-570.5 80,-570.5"/>
<text text-anchor="middle" x="135" y="-577.5" font-family="Helvetica,sans-Serif" font-size="10.00" fill="#000000">hsk_can_msg_create</text>
</a>
</g>
</g>
<!-- Node74&#45;&gt;Node78 -->
<g id="edge4" class="edge">
<title>Node74&#45;&gt;Node78</title>
<path fill="none" stroke="#191970" d="M16.0731,-361.741C20.3632,-398.9633 37.4436,-531.5926 66,-561 67.6176,-562.6658 69.3667,-564.1896 71.2195,-565.5833"/>
<polygon fill="#191970" stroke="#191970" points="69.5624,-568.6724 79.9209,-570.8975 73.2109,-562.6984 69.5624,-568.6724"/>
</g>
<!-- Node79 -->
<g id="node6" class="node">
<title>Node79</title>
<g id="a_node6"><a xlink:href="hsk__can_8h.html#afbae0ee5ea7ee60cbeb705d5d940f2b4" target="_top" xlink:title="Connect a message object to a CAN node. ">
<polygon fill="none" stroke="#000000" points="76.5,-532.5 76.5,-551.5 193.5,-551.5 193.5,-532.5 76.5,-532.5"/>
<text text-anchor="middle" x="135" y="-539.5" font-family="Helvetica,sans-Serif" font-size="10.00" fill="#000000">hsk_can_msg_connect</text>
</a>
</g>
</g>
<!-- Node74&#45;&gt;Node79 -->
<g id="edge5" class="edge">
<title>Node74&#45;&gt;Node79</title>
<path fill="none" stroke="#191970" d="M16.5952,-361.5054C22.2214,-393.948 42.0928,-499.593 66,-523 67.4649,-524.4343 69.0276,-525.7626 70.6694,-526.9926"/>
<polygon fill="#191970" stroke="#191970" points="69.0934,-530.1313 79.4513,-532.3597 72.7438,-524.1584 69.0934,-530.1313"/>
</g>
<!-- Node80 -->
<g id="node7" class="node">
<title>Node80</title>
<g id="a_node7"><a xlink:href="hsk__can_8h.html#ac4b1764cd14aa56ff998d8971950095c" target="_top" xlink:title="Creates a message FIFO. ">
<polygon fill="none" stroke="#000000" points="83,-494.5 83,-513.5 187,-513.5 187,-494.5 83,-494.5"/>
<text text-anchor="middle" x="135" y="-501.5" font-family="Helvetica,sans-Serif" font-size="10.00" fill="#000000">hsk_can_fifo_create</text>
</a>
</g>
</g>
<!-- Node74&#45;&gt;Node80 -->
<g id="edge6" class="edge">
<title>Node74&#45;&gt;Node80</title>
<path fill="none" stroke="#191970" d="M15.7948,-361.6772C18.3345,-386.1434 28.449,-450.9414 66,-485 68.3627,-487.1429 70.9454,-489.0472 73.6802,-490.739"/>
<polygon fill="#191970" stroke="#191970" points="72.3553,-493.9932 82.8493,-495.4516 75.5552,-487.7674 72.3553,-493.9932"/>
</g>
<!-- Node81 -->
<g id="node8" class="node">
<title>Node81</title>
<g id="a_node8"><a xlink:href="hsk__can_8h.html#a643a555f878aafe55bbb2e308e358734" target="_top" xlink:title="Connect a FIFO to a CAN node. ">
<polygon fill="none" stroke="#000000" points="79,-456.5 79,-475.5 191,-475.5 191,-456.5 79,-456.5"/>
<text text-anchor="middle" x="135" y="-463.5" font-family="Helvetica,sans-Serif" font-size="10.00" fill="#000000">hsk_can_fifo_connect</text>
</a>
</g>
</g>
<!-- Node74&#45;&gt;Node81 -->
<g id="edge7" class="edge">
<title>Node74&#45;&gt;Node81</title>
<path fill="none" stroke="#191970" d="M17.4467,-361.7335C22.8106,-381.0305 37.4656,-424.2349 66,-447 68.2764,-448.8161 70.7143,-450.459 73.2651,-451.9451"/>
<polygon fill="#191970" stroke="#191970" points="71.7871,-455.1187 82.302,-456.4176 74.8921,-448.845 71.7871,-455.1187"/>
</g>
<!-- Node82 -->
<g id="node9" class="node">
<title>Node82</title>
<g id="a_node9"><a xlink:href="hsk__can_8h.html#abaa7f6ad68978c93fe3969b13360ee7a" target="_top" xlink:title="Set the FIFO up for receiving messages. ">
<polygon fill="none" stroke="#000000" points="78,-418.5 78,-437.5 192,-437.5 192,-418.5 78,-418.5"/>
<text text-anchor="middle" x="135" y="-425.5" font-family="Helvetica,sans-Serif" font-size="10.00" fill="#000000">hsk_can_fifo_setupRx</text>
</a>
</g>
</g>
<!-- Node74&#45;&gt;Node82 -->
<g id="edge8" class="edge">
<title>Node74&#45;&gt;Node82</title>
<path fill="none" stroke="#191970" d="M21.0088,-361.6135C29.4789,-374.3642 46.1349,-396.689 66,-409 69.4077,-411.1118 73.0525,-412.9932 76.8205,-414.6685"/>
<polygon fill="#191970" stroke="#191970" points="75.7883,-418.0234 86.3756,-418.4228 78.3482,-411.5082 75.7883,-418.0234"/>
</g>
<!-- Node83 -->
<g id="node10" class="node">
<title>Node83</title>
<g id="a_node10"><a xlink:href="hsk__can_8h.html#ac6877a5c7fe96e1e3a8eaccaf54a013c" target="_top" xlink:title="Changes the ID matching mask of an RX FIFO. ">
<polygon fill="none" stroke="#000000" points="71,-380.5 71,-399.5 199,-399.5 199,-380.5 71,-380.5"/>
<text text-anchor="middle" x="135" y="-387.5" font-family="Helvetica,sans-Serif" font-size="10.00" fill="#000000">hsk_can_fifo_setRxMask</text>
</a>
</g>
</g>
<!-- Node74&#45;&gt;Node83 -->
<g id="edge9" class="edge">
<title>Node74&#45;&gt;Node83</title>
<path fill="none" stroke="#191970" d="M30.0526,-358.0051C40.1435,-361.9321 53.7728,-367.0474 66,-371 73.1518,-373.3119 80.7764,-375.5921 88.251,-377.7265"/>
<polygon fill="#191970" stroke="#191970" points="87.3651,-381.113 97.9384,-380.4388 89.2524,-374.3722 87.3651,-381.113"/>
</g>
<!-- Node84 -->
<g id="node11" class="node">
<title>Node84</title>
<g id="a_node11"><a xlink:href="hsk__pwm_8h.html#adb1789fc98257f9c48a9e44dbaf5f307" target="_top" xlink:title="Set the duty cycle for the given channel. ">
<polygon fill="none" stroke="#000000" points="77,-342.5 77,-361.5 193,-361.5 193,-342.5 77,-342.5"/>
<text text-anchor="middle" x="135" y="-349.5" font-family="Helvetica,sans-Serif" font-size="10.00" fill="#000000">hsk_pwm_channel_set</text>
</a>
</g>
</g>
<!-- Node74&#45;&gt;Node84 -->
<g id="edge10" class="edge">
<title>Node74&#45;&gt;Node84</title>
<path fill="none" stroke="#191970" d="M30.1981,-352C39.7897,-352 52.9302,-352 66.665,-352"/>
<polygon fill="#191970" stroke="#191970" points="66.7288,-355.5001 76.7288,-352 66.7287,-348.5001 66.7288,-355.5001"/>
</g>
<!-- Node85 -->
<g id="node12" class="node">
<title>Node85</title>
<g id="a_node12"><a xlink:href="hsk__adc_8h.html#a447e7bd775962054ffa80262bb676076" target="_top" xlink:title="Requests an ADC for a specific channel. ">
<polygon fill="none" stroke="#000000" points="89.5,-304.5 89.5,-323.5 180.5,-323.5 180.5,-304.5 89.5,-304.5"/>
<text text-anchor="middle" x="135" y="-311.5" font-family="Helvetica,sans-Serif" font-size="10.00" fill="#000000">hsk_adc_request</text>
</a>
</g>
</g>
<!-- Node74&#45;&gt;Node85 -->
<g id="edge11" class="edge">
<title>Node74&#45;&gt;Node85</title>
<path fill="none" stroke="#191970" d="M30.0526,-345.9949C40.1435,-342.0679 53.7728,-336.9526 66,-333 73.1518,-330.6881 80.7764,-328.4079 88.251,-326.2735"/>
<polygon fill="#191970" stroke="#191970" points="89.2524,-329.6278 97.9384,-323.5612 87.3651,-322.887 89.2524,-329.6278"/>
</g>
<!-- Node86 -->
<g id="node13" class="node">
<title>Node86</title>
<g id="a_node13"><a xlink:href="hsk__wdt_8h.html#a647944508e2a8f6ed9a3aee9e350b32d" target="_top" xlink:title="Resets the watchdog timer. ">
<polygon fill="none" stroke="#000000" points="90,-266.5 90,-285.5 180,-285.5 180,-266.5 90,-266.5"/>
<text text-anchor="middle" x="135" y="-273.5" font-family="Helvetica,sans-Serif" font-size="10.00" fill="#000000">hsk_wdt_service</text>
</a>
</g>
</g>
<!-- Node74&#45;&gt;Node86 -->
<g id="edge12" class="edge">
<title>Node74&#45;&gt;Node86</title>
<path fill="none" stroke="#191970" d="M21.0088,-342.3865C29.4789,-329.6358 46.1349,-307.311 66,-295 70.3764,-292.2878 75.1438,-289.9559 80.061,-287.9521"/>
<polygon fill="#191970" stroke="#191970" points="81.4241,-291.1811 89.6383,-284.4896 79.044,-284.5981 81.4241,-291.1811"/>
</g>
<!-- Node87 -->
<g id="node14" class="node">
<title>Node87</title>
<g id="a_node14"><a xlink:href="hsk__pwc_8h.html#a43921507c6e1ab277bf62fd952dc909e" target="_top" xlink:title="Returns a measure of the values in a channel buffer. ">
<polygon fill="none" stroke="#000000" points="66,-228.5 66,-247.5 204,-247.5 204,-228.5 66,-228.5"/>
<text text-anchor="middle" x="135" y="-235.5" font-family="Helvetica,sans-Serif" font-size="10.00" fill="#000000">hsk_pwc_channel_getValue</text>
</a>
</g>
</g>
<!-- Node74&#45;&gt;Node87 -->
<g id="edge13" class="edge">
<title>Node74&#45;&gt;Node87</title>
<path fill="none" stroke="#191970" d="M17.4467,-342.2665C22.8106,-322.9695 37.4656,-279.7651 66,-257 68.2764,-255.1839 70.7143,-253.541 73.2651,-252.0549"/>
<polygon fill="#191970" stroke="#191970" points="74.8921,-255.155 82.302,-247.5824 71.7871,-248.8813 74.8921,-255.155"/>
</g>
<!-- Node88 -->
<g id="node15" class="node">
<title>Node88</title>
<g id="a_node15"><a xlink:href="hsk__can_8h.html#a65593388f5d52493130ef62966b11c11" target="_top" xlink:title="Sets the current data in the CAN message. ">
<polygon fill="none" stroke="#000000" points="76.5,-190.5 76.5,-209.5 193.5,-209.5 193.5,-190.5 76.5,-190.5"/>
<text text-anchor="middle" x="135" y="-197.5" font-family="Helvetica,sans-Serif" font-size="10.00" fill="#000000">hsk_can_msg_setData</text>
</a>
</g>
</g>
<!-- Node74&#45;&gt;Node88 -->
<g id="edge14" class="edge">
<title>Node74&#45;&gt;Node88</title>
<path fill="none" stroke="#191970" d="M15.7948,-342.3228C18.3345,-317.8566 28.449,-253.0586 66,-219 67.7199,-217.4401 69.5563,-216.0067 71.4832,-214.6896"/>
<polygon fill="#191970" stroke="#191970" points="73.449,-217.5988 80.4293,-209.6285 70.0022,-211.5062 73.449,-217.5988"/>
</g>
<!-- Node89 -->
<g id="node16" class="node">
<title>Node89</title>
<g id="a_node16"><a xlink:href="hsk__can_8h.html#ae4bc047461eb48f3c81edbd728cc57d2" target="_top" xlink:title="Request transmission of a message. ">
<polygon fill="none" stroke="#000000" points="83,-152.5 83,-171.5 187,-171.5 187,-152.5 83,-152.5"/>
<text text-anchor="middle" x="135" y="-159.5" font-family="Helvetica,sans-Serif" font-size="10.00" fill="#000000">hsk_can_msg_send</text>
</a>
</g>
</g>
<!-- Node74&#45;&gt;Node89 -->
<g id="edge15" class="edge">
<title>Node74&#45;&gt;Node89</title>
<path fill="none" stroke="#191970" d="M16.5952,-342.4946C22.2214,-310.052 42.0928,-204.407 66,-181 68.3971,-178.653 71.0561,-176.5898 73.8951,-174.7765"/>
<polygon fill="#191970" stroke="#191970" points="75.651,-177.8076 82.8701,-170.0529 72.3908,-171.6131 75.651,-177.8076"/>
</g>
<!-- Node90 -->
<g id="node17" class="node">
<title>Node90</title>
<g id="a_node17"><a xlink:href="hsk__can_8h.html#ae827521a839dae2fb903a58da4027008" target="_top" xlink:title="Return whether the currently selected FIFO entry was updated via CAN bus between this call and the pr...">
<polygon fill="none" stroke="#000000" points="79,-114.5 79,-133.5 191,-133.5 191,-114.5 79,-114.5"/>
<text text-anchor="middle" x="135" y="-121.5" font-family="Helvetica,sans-Serif" font-size="10.00" fill="#000000">hsk_can_fifo_updated</text>
</a>
</g>
</g>
<!-- Node74&#45;&gt;Node90 -->
<g id="edge16" class="edge">
<title>Node74&#45;&gt;Node90</title>
<path fill="none" stroke="#191970" d="M16.0731,-342.259C20.3632,-305.0367 37.4436,-172.4074 66,-143 67.3958,-141.5626 68.8895,-140.231 70.4632,-138.9974"/>
<polygon fill="#191970" stroke="#191970" points="72.3634,-141.9368 78.9162,-133.6115 68.6019,-136.0333 72.3634,-141.9368"/>
</g>
<!-- Node91 -->
<g id="node18" class="node">
<title>Node91</title>
<g id="a_node18"><a xlink:href="hsk__can_8h.html#a38bc6dfad832efea395a55f3c810e157" target="_top" xlink:title="Returns the CAN ID of the selected FIFO entry. ">
<polygon fill="none" stroke="#000000" points="85.5,-76.5 85.5,-95.5 184.5,-95.5 184.5,-76.5 85.5,-76.5"/>
<text text-anchor="middle" x="135" y="-83.5" font-family="Helvetica,sans-Serif" font-size="10.00" fill="#000000">hsk_can_fifo_getId</text>
</a>
</g>
</g>
<!-- Node74&#45;&gt;Node91 -->
<g id="edge17" class="edge">
<title>Node74&#45;&gt;Node91</title>
<path fill="none" stroke="#191970" d="M15.6804,-342.2441C18.7575,-300.8886 32.6941,-140.5474 66,-105 68.9627,-101.8379 72.3988,-99.1847 76.1242,-96.9605"/>
<polygon fill="#191970" stroke="#191970" points="77.7988,-100.0379 85.2555,-92.5114 74.7328,-93.7451 77.7988,-100.0379"/>
</g>
<!-- Node92 -->
<g id="node19" class="node">
<title>Node92</title>
<g id="a_node19"><a xlink:href="hsk__can_8h.html#ae45df92cb26b61109a137690d15ca10f" target="_top" xlink:title="Gets the data from the currently selected FIFO entry. ">
<polygon fill="none" stroke="#000000" points="79,-38.5 79,-57.5 191,-57.5 191,-38.5 79,-38.5"/>
<text text-anchor="middle" x="135" y="-45.5" font-family="Helvetica,sans-Serif" font-size="10.00" fill="#000000">hsk_can_fifo_getData</text>
</a>
</g>
</g>
<!-- Node74&#45;&gt;Node92 -->
<g id="edge18" class="edge">
<title>Node74&#45;&gt;Node92</title>
<path fill="none" stroke="#191970" d="M15.3858,-342.3124C17.3734,-297.2731 27.8876,-108.775 66,-67 67.3817,-65.4855 68.872,-64.0872 70.4511,-62.7966"/>
<polygon fill="#191970" stroke="#191970" points="72.5478,-65.6073 78.995,-57.1999 68.7121,-59.7517 72.5478,-65.6073"/>
</g>
<!-- Node93 -->
<g id="node20" class="node">
<title>Node93</title>
<g id="a_node20"><a xlink:href="hsk__can_8h.html#aab78f3398ef8049c8ba186785b4886d6" target="_top" xlink:title="Select the next FIFO entry. ">
<polygon fill="none" stroke="#000000" points="87,-.5 87,-19.5 183,-19.5 183,-.5 87,-.5"/>
<text text-anchor="middle" x="135" y="-7.5" font-family="Helvetica,sans-Serif" font-size="10.00" fill="#000000">hsk_can_fifo_next</text>
</a>
</g>
</g>
<!-- Node74&#45;&gt;Node93 -->
<g id="edge19" class="edge">
<title>Node74&#45;&gt;Node93</title>
<path fill="none" stroke="#191970" d="M15.1621,-342.3538C16.172,-293.8501 23.0615,-77.0435 66,-29 69.2938,-25.3146 73.2301,-22.3157 77.5298,-19.8791"/>
<polygon fill="#191970" stroke="#191970" points="79.1528,-22.9851 86.776,-15.6273 76.2283,-16.6253 79.1528,-22.9851"/>
</g>
</g>
</svg>
        <g id="navigator" transform="translate(0 0)" fill="#404254">
                <rect fill="#f2f5e9" fill-opacity="0.5" stroke="#606060" stroke-width=".5" x="0" y="0" width="60" height="60"/>
                <use id="zoomplus" xlink:href="#zoomPlus" x="17" y="9" onmousedown="handleZoom(evt,'in')"/>
                <use id="zoomminus" xlink:href="#zoomMin" x="42" y="9" onmousedown="handleZoom(evt,'out')"/>
                <use id="reset" xlink:href="#resetDef" x="30" y="36" onmousedown="handleReset()"/>
                <g id="arrowUp" xlink:href="#dirArrow" transform="translate(30 24)" onmousedown="handlePan(0,-1)">
                  <use xlink:href="#rim" fill="#404040">
                        <set attributeName="fill" to="#808080" begin="arrowUp.mouseover" end="arrowUp.mouseout"/>
                  </use>
                  <path fill="none" stroke="white" stroke-width="1.5" d="M0,-3.0v7 M-2.5,-0.5L0,-3.0L2.5,-0.5"/>
                </g>
                <g id="arrowRight" xlink:href="#dirArrow" transform="rotate(90) translate(36 -43)" onmousedown="handlePan(1,0)">
                  <use xlink:href="#rim" fill="#404040">
                        <set attributeName="fill" to="#808080" begin="arrowRight.mouseover" end="arrowRight.mouseout"/>
                  </use>
                  <path fill="none" stroke="white" stroke-width="1.5" d="M0,-3.0v7 M-2.5,-0.5L0,-3.0L2.5,-0.5"/>
                </g>
                <g id="arrowDown" xlink:href="#dirArrow" transform="rotate(180) translate(-30 -48)" onmousedown="handlePan(0,1)">
                  <use xlink:href="#rim" fill="#404040">
                        <set attributeName="fill" to="#808080" begin="arrowDown.mouseover" end="arrowDown.mouseout"/>
                  </use>
                  <path fill="none" stroke="white" stroke-width="1.5" d="M0,-3.0v7 M-2.5,-0.5L0,-3.0L2.5,-0.5"/>
                </g>
                <g id="arrowLeft" xlink:href="#dirArrow" transform="rotate(270) translate(-36 17)" onmousedown="handlePan(-1,0)">
                  <use xlink:href="#rim" fill="#404040">
                        <set attributeName="fill" to="#808080" begin="arrowLeft.mouseover" end="arrowLeft.mouseout"/>
                  </use>
                  <path fill="none" stroke="white" stroke-width="1.5" d="M0,-3.0v7 M-2.5,-0.5L0,-3.0L2.5,-0.5"/>
                </g>
        </g>
        <svg viewBox="0 0 15 15" width="100%" height="30px" preserveAspectRatio="xMaxYMin meet">
         <g id="arrow_out" transform="scale(0.3 0.3)">
          <a xlink:href="main_8c_a05e0ffe612d44e6d7f3a9ae5b9df56a2_cgraph_org.svg" target="_base">
           <rect id="button" ry="5" rx="5" y="6" x="6" height="38" width="38"
                fill="#f2f5e9" fill-opacity="0.5" stroke="#606060" stroke-width="1.0"/>
           <path id="arrow"
             d="M 11.500037,31.436501 C 11.940474,20.09759 22.043105,11.32322 32.158766,21.979434 L 37.068811,17.246167 C 37.068811,17.246167 37.088388,32 37.088388,32 L 22.160133,31.978069 C 22.160133,31.978069 26.997745,27.140456 26.997745,27.140456 C 18.528582,18.264221 13.291696,25.230495 11.500037,31.436501 z"
             style="fill:#404040;"/>
          </a>
         </g>
        </svg>
</svg>
