<?xml version="1.0" encoding="UTF-8" standalone="no"?>
<!DOCTYPE svg PUBLIC "-//W3C//DTD SVG 1.1//EN"
 "http://www.w3.org/Graphics/SVG/1.1/DTD/svg11.dtd">
<!-- Generated by graphviz version 2.40.1 (20161225.0304)
 -->
<!-- Title: init Pages: 1 -->
<svg width="218pt" height="940pt"
 viewBox="0.00 0.00 218.00 940.00" xmlns="http://www.w3.org/2000/svg" xmlns:xlink="http://www.w3.org/1999/xlink">
<g id="graph0" class="graph" transform="scale(1 1) rotate(0) translate(4 936)">
<title>init</title>
<!-- Node0 -->
<g id="node1" class="node">
<title>Node0</title>
<polygon fill="#bfbfbf" stroke="#000000" points="0,-456.5 0,-475.5 29,-475.5 29,-456.5 0,-456.5"/>
<text text-anchor="middle" x="14.5" y="-463.5" font-family="Helvetica,sans-Serif" font-size="10.00" fill="#000000">init</text>
</g>
<!-- Node1 -->
<g id="node2" class="node">
<title>Node1</title>
<g id="a_node2"><a xlink:href="hsk__boot_8h.html#a269a6fcd133ceff6c31b30ee568698b3" target="_top" xlink:title="Switches to an external oscilator. ">
<polygon fill="none" stroke="#000000" points="87,-912.5 87,-931.5 188,-931.5 188,-912.5 87,-912.5"/>
<text text-anchor="middle" x="137.5" y="-919.5" font-family="Helvetica,sans-Serif" font-size="10.00" fill="#000000">hsk_boot_extClock</text>
</a>
</g>
</g>
<!-- Node0&#45;&gt;Node1 -->
<g id="edge1" class="edge">
<title>Node0&#45;&gt;Node1</title>
<path fill="none" stroke="#191970" d="M14.963,-475.5237C18.004,-536.3927 35.9037,-869.4734 65,-903 68.482,-907.0122 72.6975,-910.228 77.3238,-912.7992"/>
<polygon fill="#191970" stroke="#191970" points="76.0865,-916.0803 86.6423,-916.9894 78.9573,-909.6961 76.0865,-916.0803"/>
</g>
<!-- Node2 -->
<g id="node3" class="node">
<title>Node2</title>
<g id="a_node3"><a xlink:href="hsk__flash_8h.html#acc2074fa68d4da24fb483fbd49438da9" target="_top" xlink:title="Recovers a struct from a previous session and sets everything up for storage of changes. ">
<polygon fill="none" stroke="#000000" points="99,-874.5 99,-893.5 176,-893.5 176,-874.5 99,-874.5"/>
<text text-anchor="middle" x="137.5" y="-881.5" font-family="Helvetica,sans-Serif" font-size="10.00" fill="#000000">hsk_flash_init</text>
</a>
</g>
</g>
<!-- Node0&#45;&gt;Node2 -->
<g id="edge2" class="edge">
<title>Node0&#45;&gt;Node2</title>
<path fill="none" stroke="#191970" d="M15.0899,-475.8051C18.6875,-534.2046 38.4057,-834.6901 65,-865 71.2392,-872.1109 79.782,-876.7153 88.8167,-879.6633"/>
<polygon fill="#191970" stroke="#191970" points="88.1678,-883.1112 98.7277,-882.2524 89.9371,-876.3384 88.1678,-883.1112"/>
</g>
<!-- Node3 -->
<g id="node4" class="node">
<title>Node3</title>
<g id="a_node4"><a xlink:href="hsk__flash_8h.html#a36a01af82333ae82b381cd939fcd421f" target="_top" xlink:title="Writes the current data to the D&#45;Flash. ">
<polygon fill="none" stroke="#000000" points="95,-836.5 95,-855.5 180,-855.5 180,-836.5 95,-836.5"/>
<text text-anchor="middle" x="137.5" y="-843.5" font-family="Helvetica,sans-Serif" font-size="10.00" fill="#000000">hsk_flash_write</text>
</a>
</g>
</g>
<!-- Node0&#45;&gt;Node3 -->
<g id="edge3" class="edge">
<title>Node0&#45;&gt;Node3</title>
<path fill="none" stroke="#191970" d="M15.2087,-475.5732C19.3258,-530.0805 40.8223,-799.8054 65,-827 70.3494,-833.0169 77.3483,-837.2353 84.8868,-840.1729"/>
<polygon fill="#191970" stroke="#191970" points="84.0509,-843.5791 94.6405,-843.248 86.1557,-836.903 84.0509,-843.5791"/>
</g>
<!-- Node4 -->
<g id="node5" class="node">
<title>Node4</title>
<g id="a_node5"><a xlink:href="hsk__timer01_8h.html#a667ac946d585afa9ab8050f03e1c97d4" target="_top" xlink:title="Setup timer 0 to tick at a given interval. ">
<polygon fill="none" stroke="#000000" points="90.5,-798.5 90.5,-817.5 184.5,-817.5 184.5,-798.5 90.5,-798.5"/>
<text text-anchor="middle" x="137.5" y="-805.5" font-family="Helvetica,sans-Serif" font-size="10.00" fill="#000000">hsk_timer0_setup</text>
</a>
</g>
</g>
<!-- Node0&#45;&gt;Node4 -->
<g id="edge4" class="edge">
<title>Node0&#45;&gt;Node4</title>
<path fill="none" stroke="#191970" d="M14.6346,-475.6556C15.5083,-524.2056 21.8108,-741.2023 65,-789 69.3509,-793.8151 74.7583,-797.4752 80.6454,-800.2476"/>
<polygon fill="#191970" stroke="#191970" points="79.6183,-803.6021 90.2086,-803.9118 82.1229,-797.0655 79.6183,-803.6021"/>
</g>
<!-- Node5 -->
<g id="node6" class="node">
<title>Node5</title>
<g id="a_node6"><a xlink:href="main_8c.html#abadcd102692e413d1f7ec394e32dfbe1" target="_top" xlink:title="A ticking function called back by the timer T0 ISR. ">
<polygon fill="none" stroke="#000000" points="118.5,-760.5 118.5,-779.5 156.5,-779.5 156.5,-760.5 118.5,-760.5"/>
<text text-anchor="middle" x="137.5" y="-767.5" font-family="Helvetica,sans-Serif" font-size="10.00" fill="#000000">tick0</text>
</a>
</g>
</g>
<!-- Node0&#45;&gt;Node5 -->
<g id="edge5" class="edge">
<title>Node0&#45;&gt;Node5</title>
<path fill="none" stroke="#191970" d="M14.8563,-475.6971C16.7084,-520.7795 26.6763,-709.442 65,-751 75.8602,-762.7767 93.043,-767.6205 107.9552,-769.4759"/>
<polygon fill="#191970" stroke="#191970" points="108.0286,-772.9947 118.2894,-770.3553 108.6221,-766.0199 108.0286,-772.9947"/>
</g>
<!-- Node6 -->
<g id="node7" class="node">
<title>Node6</title>
<g id="a_node7"><a xlink:href="hsk__timer01_8h.html#a94be3e9335459456cabe17026c4ac785" target="_top" xlink:title="Enables the timer 0 and its interrupt. ">
<polygon fill="none" stroke="#000000" points="88.5,-722.5 88.5,-741.5 186.5,-741.5 186.5,-722.5 88.5,-722.5"/>
<text text-anchor="middle" x="137.5" y="-729.5" font-family="Helvetica,sans-Serif" font-size="10.00" fill="#000000">hsk_timer0_enable</text>
</a>
</g>
</g>
<!-- Node0&#45;&gt;Node6 -->
<g id="edge6" class="edge">
<title>Node0&#45;&gt;Node6</title>
<path fill="none" stroke="#191970" d="M15.1481,-475.7656C18.0902,-517.1608 31.5221,-677.6413 65,-713 68.9139,-717.1338 73.6075,-720.4096 78.7,-722.9999"/>
<polygon fill="#191970" stroke="#191970" points="77.6378,-726.3488 88.215,-726.9594 80.3272,-719.886 77.6378,-726.3488"/>
</g>
<!-- Node7 -->
<g id="node8" class="node">
<title>Node7</title>
<g id="a_node8"><a xlink:href="hsk__adc_8h.html#ab81d21d9e6875accdd23077d31fa3782" target="_top" xlink:title="Initialize the AD conversion. ">
<polygon fill="none" stroke="#000000" points="102,-684.5 102,-703.5 173,-703.5 173,-684.5 102,-684.5"/>
<text text-anchor="middle" x="137.5" y="-691.5" font-family="Helvetica,sans-Serif" font-size="10.00" fill="#000000">hsk_adc_init</text>
</a>
</g>
</g>
<!-- Node0&#45;&gt;Node7 -->
<g id="edge7" class="edge">
<title>Node0&#45;&gt;Node7</title>
<path fill="none" stroke="#191970" d="M15.5374,-475.7509C19.6929,-513.0093 36.3107,-645.7538 65,-675 72.244,-682.3846 81.9806,-687.015 91.9631,-689.8897"/>
<polygon fill="#191970" stroke="#191970" points="91.4109,-693.3547 101.9444,-692.2161 92.9999,-686.5374 91.4109,-693.3547"/>
</g>
<!-- Node8 -->
<g id="node9" class="node">
<title>Node8</title>
<g id="a_node9"><a xlink:href="hsk__adc_8h.html#a1d7fa0af4b60b748dc19919a5d3c3184" target="_top" xlink:title="Turns on ADC conversion, if previously deactivated. ">
<polygon fill="none" stroke="#000000" points="94,-646.5 94,-665.5 181,-665.5 181,-646.5 94,-646.5"/>
<text text-anchor="middle" x="137.5" y="-653.5" font-family="Helvetica,sans-Serif" font-size="10.00" fill="#000000">hsk_adc_enable</text>
</a>
</g>
</g>
<!-- Node0&#45;&gt;Node8 -->
<g id="edge8" class="edge">
<title>Node0&#45;&gt;Node8</title>
<path fill="none" stroke="#191970" d="M16.0555,-475.5153C21.5479,-507.9902 40.9985,-613.7279 65,-637 70.3948,-642.2308 77.045,-646.0686 84.1098,-648.8755"/>
<polygon fill="#191970" stroke="#191970" points="83.3287,-652.3029 93.9215,-652.0983 85.5131,-645.6524 83.3287,-652.3029"/>
</g>
<!-- Node9 -->
<g id="node10" class="node">
<title>Node9</title>
<g id="a_node10"><a xlink:href="hsk__can_8h.html#a5bea69c2f6ea507ef8bda72c64a682f1" target="_top" xlink:title="Setup CAN communication with the desired baud rate. ">
<polygon fill="none" stroke="#000000" points="102,-608.5 102,-627.5 173,-627.5 173,-608.5 102,-608.5"/>
<text text-anchor="middle" x="137.5" y="-615.5" font-family="Helvetica,sans-Serif" font-size="10.00" fill="#000000">hsk_can_init</text>
</a>
</g>
</g>
<!-- Node0&#45;&gt;Node9 -->
<g id="edge9" class="edge">
<title>Node0&#45;&gt;Node9</title>
<path fill="none" stroke="#191970" d="M15.2304,-475.7027C17.6122,-500.2287 27.3413,-565.1553 65,-599 72.5487,-605.7842 82.2279,-610.1981 92.0385,-613.0563"/>
<polygon fill="#191970" stroke="#191970" points="91.276,-616.4728 101.819,-615.4262 92.9244,-609.6696 91.276,-616.4728"/>
</g>
<!-- Node10 -->
<g id="node11" class="node">
<title>Node10</title>
<g id="a_node11"><a xlink:href="hsk__can_8h.html#a244f850938990aa104f5e40b3db8b161" target="_top" xlink:title="Disable a CAN node. ">
<polygon fill="none" stroke="#000000" points="93,-570.5 93,-589.5 182,-589.5 182,-570.5 93,-570.5"/>
<text text-anchor="middle" x="137.5" y="-577.5" font-family="Helvetica,sans-Serif" font-size="10.00" fill="#000000">hsk_can_disable</text>
</a>
</g>
</g>
<!-- Node0&#45;&gt;Node10 -->
<g id="edge10" class="edge">
<title>Node0&#45;&gt;Node10</title>
<path fill="none" stroke="#191970" d="M16.8696,-475.7622C22.0856,-495.1107 36.4339,-538.403 65,-561 70.3481,-565.2305 76.5447,-568.5252 83.0185,-571.0899"/>
<polygon fill="#191970" stroke="#191970" points="82.0406,-574.454 92.635,-574.3492 84.2876,-567.8244 82.0406,-574.454"/>
</g>
<!-- Node11 -->
<g id="node12" class="node">
<title>Node11</title>
<g id="a_node12"><a xlink:href="hsk__can_8h.html#a6c60d9c3c7d519a53485837bf7faaa8a" target="_top" xlink:title="Go live on the CAN bus. ">
<polygon fill="none" stroke="#000000" points="94,-532.5 94,-551.5 181,-551.5 181,-532.5 94,-532.5"/>
<text text-anchor="middle" x="137.5" y="-539.5" font-family="Helvetica,sans-Serif" font-size="10.00" fill="#000000">hsk_can_enable</text>
</a>
</g>
</g>
<!-- Node0&#45;&gt;Node11 -->
<g id="edge11" class="edge">
<title>Node0&#45;&gt;Node11</title>
<path fill="none" stroke="#191970" d="M20.4047,-475.6509C28.7405,-488.4441 45.1754,-510.8169 65,-523 70.8097,-526.5703 77.2789,-529.4751 83.8944,-531.8372"/>
<polygon fill="#191970" stroke="#191970" points="83.0412,-535.2383 93.6314,-534.9239 85.1566,-528.5656 83.0412,-535.2383"/>
</g>
<!-- Node12 -->
<g id="node13" class="node">
<title>Node12</title>
<g id="a_node13"><a xlink:href="hsk__pwm_8h.html#afb0e12ce3f25f6ff1464e8d52851dd9d" target="_top" xlink:title="Sets up the the CCU6 timer frequencies that control the PWM cycle. ">
<polygon fill="none" stroke="#000000" points="99,-494.5 99,-513.5 176,-513.5 176,-494.5 99,-494.5"/>
<text text-anchor="middle" x="137.5" y="-501.5" font-family="Helvetica,sans-Serif" font-size="10.00" fill="#000000">hsk_pwm_init</text>
</a>
</g>
</g>
<!-- Node0&#45;&gt;Node12 -->
<g id="edge12" class="edge">
<title>Node0&#45;&gt;Node12</title>
<path fill="none" stroke="#191970" d="M29.3836,-472.0641C39.3665,-476.0161 52.8602,-481.137 65,-485 72.7573,-487.4685 81.053,-489.8652 89.1607,-492.0778"/>
<polygon fill="#191970" stroke="#191970" points="88.344,-495.4822 98.9083,-494.6778 90.1482,-488.7187 88.344,-495.4822"/>
</g>
<!-- Node13 -->
<g id="node14" class="node">
<title>Node13</title>
<g id="a_node14"><a xlink:href="hsk__pwm_8h.html#a867217108a46c87879decc4348e36925" target="_top" xlink:title="Turns on the CCU6. ">
<polygon fill="none" stroke="#000000" points="91.5,-456.5 91.5,-475.5 183.5,-475.5 183.5,-456.5 91.5,-456.5"/>
<text text-anchor="middle" x="137.5" y="-463.5" font-family="Helvetica,sans-Serif" font-size="10.00" fill="#000000">hsk_pwm_enable</text>
</a>
</g>
</g>
<!-- Node0&#45;&gt;Node13 -->
<g id="edge13" class="edge">
<title>Node0&#45;&gt;Node13</title>
<path fill="none" stroke="#191970" d="M29.0927,-466C42.0925,-466 61.9767,-466 81.1821,-466"/>
<polygon fill="#191970" stroke="#191970" points="81.4274,-469.5001 91.4274,-466 81.4273,-462.5001 81.4274,-469.5001"/>
</g>
<!-- Node14 -->
<g id="node15" class="node">
<title>Node14</title>
<g id="a_node15"><a xlink:href="hsk__pwm_8h.html#abe64ff01b392ef0e6b05e34d9ea85ca2" target="_top" xlink:title="Set up a PWM output port. ">
<polygon fill="none" stroke="#000000" points="84,-418.5 84,-437.5 191,-437.5 191,-418.5 84,-418.5"/>
<text text-anchor="middle" x="137.5" y="-425.5" font-family="Helvetica,sans-Serif" font-size="10.00" fill="#000000">hsk_pwm_port_open</text>
</a>
</g>
</g>
<!-- Node0&#45;&gt;Node14 -->
<g id="edge14" class="edge">
<title>Node0&#45;&gt;Node14</title>
<path fill="none" stroke="#191970" d="M29.3836,-459.9359C39.3665,-455.9839 52.8602,-450.863 65,-447 72.4977,-444.6142 80.4983,-442.2953 88.3461,-440.145"/>
<polygon fill="#191970" stroke="#191970" points="89.4007,-443.486 98.1554,-437.519 87.5905,-436.7241 89.4007,-443.486"/>
</g>
<!-- Node15 -->
<g id="node16" class="node">
<title>Node15</title>
<g id="a_node16"><a xlink:href="hsk__pwm_8h.html#adb1789fc98257f9c48a9e44dbaf5f307" target="_top" xlink:title="Set the duty cycle for the given channel. ">
<polygon fill="none" stroke="#000000" points="79.5,-380.5 79.5,-399.5 195.5,-399.5 195.5,-380.5 79.5,-380.5"/>
<text text-anchor="middle" x="137.5" y="-387.5" font-family="Helvetica,sans-Serif" font-size="10.00" fill="#000000">hsk_pwm_channel_set</text>
</a>
</g>
</g>
<!-- Node0&#45;&gt;Node15 -->
<g id="edge15" class="edge">
<title>Node0&#45;&gt;Node15</title>
<path fill="none" stroke="#191970" d="M20.4047,-456.3491C28.7405,-443.5559 45.1754,-421.1831 65,-409 68.5544,-406.8157 72.3557,-404.8804 76.2863,-403.1662"/>
<polygon fill="#191970" stroke="#191970" points="77.57,-406.4224 85.637,-399.5541 75.0476,-399.8927 77.57,-406.4224"/>
</g>
<!-- Node16 -->
<g id="node17" class="node">
<title>Node16</title>
<g id="a_node17"><a xlink:href="hsk__pwc_8h.html#a878c8f83d9c509b964683d51fe0b41fe" target="_top" xlink:title="This function initializes the T2CCU Capture/Compare Unit for capture mode. ">
<polygon fill="none" stroke="#000000" points="100.5,-342.5 100.5,-361.5 174.5,-361.5 174.5,-342.5 100.5,-342.5"/>
<text text-anchor="middle" x="137.5" y="-349.5" font-family="Helvetica,sans-Serif" font-size="10.00" fill="#000000">hsk_pwc_init</text>
</a>
</g>
</g>
<!-- Node0&#45;&gt;Node16 -->
<g id="edge16" class="edge">
<title>Node0&#45;&gt;Node16</title>
<path fill="none" stroke="#191970" d="M16.8696,-456.2378C22.0856,-436.8893 36.4339,-393.597 65,-371 72.3444,-365.1903 81.2893,-361.1455 90.3543,-358.3324"/>
<polygon fill="#191970" stroke="#191970" points="91.3945,-361.6777 100.1678,-355.7382 89.6054,-354.9102 91.3945,-361.6777"/>
</g>
<!-- Node17 -->
<g id="node18" class="node">
<title>Node17</title>
<g id="a_node18"><a xlink:href="hsk__pwc_8h.html#a8911a823ba8327813571f9f86b8ff089" target="_top" xlink:title="Opens an input port and the connected channel. ">
<polygon fill="none" stroke="#000000" points="85.5,-304.5 85.5,-323.5 189.5,-323.5 189.5,-304.5 85.5,-304.5"/>
<text text-anchor="middle" x="137.5" y="-311.5" font-family="Helvetica,sans-Serif" font-size="10.00" fill="#000000">hsk_pwc_port_open</text>
</a>
</g>
</g>
<!-- Node0&#45;&gt;Node17 -->
<g id="edge17" class="edge">
<title>Node0&#45;&gt;Node17</title>
<path fill="none" stroke="#191970" d="M15.2304,-456.2973C17.6122,-431.7713 27.3413,-366.8447 65,-333 68.357,-329.983 72.1353,-327.4348 76.1592,-325.2837"/>
<polygon fill="#191970" stroke="#191970" points="77.6044,-328.4714 85.2921,-321.181 74.736,-322.0861 77.6044,-328.4714"/>
</g>
<!-- Node18 -->
<g id="node19" class="node">
<title>Node18</title>
<g id="a_node19"><a xlink:href="hsk__pwc_8h.html#a5f439afc50db173f63ce03b4889a03f5" target="_top" xlink:title="Select the edge that is used to detect a pulse. ">
<polygon fill="none" stroke="#000000" points="65,-266.5 65,-285.5 210,-285.5 210,-266.5 65,-266.5"/>
<text text-anchor="middle" x="137.5" y="-273.5" font-family="Helvetica,sans-Serif" font-size="10.00" fill="#000000">hsk_pwc_channel_edgeMode</text>
</a>
</g>
</g>
<!-- Node0&#45;&gt;Node18 -->
<g id="edge18" class="edge">
<title>Node0&#45;&gt;Node18</title>
<path fill="none" stroke="#191970" d="M16.0555,-456.4847C21.5479,-424.0098 40.9985,-318.2721 65,-295 66.4713,-293.5734 68.036,-292.2504 69.677,-291.0237"/>
<polygon fill="#191970" stroke="#191970" points="71.7386,-293.8654 78.4391,-285.6584 68.0832,-287.8957 71.7386,-293.8654"/>
</g>
<!-- Node19 -->
<g id="node20" class="node">
<title>Node19</title>
<g id="a_node20"><a xlink:href="hsk__pwc_8h.html#a4f120d755c5ab2521fe060fb9c1b2148" target="_top" xlink:title="Enables T2CCU module if disabled. ">
<polygon fill="none" stroke="#000000" points="93,-228.5 93,-247.5 182,-247.5 182,-228.5 93,-228.5"/>
<text text-anchor="middle" x="137.5" y="-235.5" font-family="Helvetica,sans-Serif" font-size="10.00" fill="#000000">hsk_pwc_enable</text>
</a>
</g>
</g>
<!-- Node0&#45;&gt;Node19 -->
<g id="edge19" class="edge">
<title>Node0&#45;&gt;Node19</title>
<path fill="none" stroke="#191970" d="M15.5374,-456.2491C19.6929,-418.9907 36.3107,-286.2462 65,-257 70.1368,-251.7635 76.5271,-247.9118 83.3697,-245.0891"/>
<polygon fill="#191970" stroke="#191970" points="84.5661,-248.3792 92.9055,-241.8443 82.3111,-241.7523 84.5661,-248.3792"/>
</g>
<!-- Node20 -->
<g id="node21" class="node">
<title>Node20</title>
<g id="a_node21"><a xlink:href="hsk__wdt_8h.html#a354e2c3989af35f9c2a059d3f0beba86" target="_top" xlink:title="Sets up the watchdog timer. ">
<polygon fill="none" stroke="#000000" points="102,-190.5 102,-209.5 173,-209.5 173,-190.5 102,-190.5"/>
<text text-anchor="middle" x="137.5" y="-197.5" font-family="Helvetica,sans-Serif" font-size="10.00" fill="#000000">hsk_wdt_init</text>
</a>
</g>
</g>
<!-- Node0&#45;&gt;Node20 -->
<g id="edge20" class="edge">
<title>Node0&#45;&gt;Node20</title>
<path fill="none" stroke="#191970" d="M15.1481,-456.2344C18.0902,-414.8392 31.5221,-254.3587 65,-219 72.1121,-211.4883 81.7988,-206.8098 91.7751,-203.9291"/>
<polygon fill="#191970" stroke="#191970" points="92.8144,-207.281 101.7633,-201.6094 91.2308,-200.4624 92.8144,-207.281"/>
</g>
<!-- Node21 -->
<g id="node22" class="node">
<title>Node21</title>
<g id="a_node22"><a xlink:href="hsk__wdt_8h.html#adc711831b93a22ece59252549f9d8ea9" target="_top" xlink:title="Activates the Watchdog Timer. ">
<polygon fill="none" stroke="#000000" points="94,-152.5 94,-171.5 181,-171.5 181,-152.5 94,-152.5"/>
<text text-anchor="middle" x="137.5" y="-159.5" font-family="Helvetica,sans-Serif" font-size="10.00" fill="#000000">hsk_wdt_enable</text>
</a>
</g>
</g>
<!-- Node0&#45;&gt;Node21 -->
<g id="edge21" class="edge">
<title>Node0&#45;&gt;Node21</title>
<path fill="none" stroke="#191970" d="M14.8563,-456.3029C16.7084,-411.2205 26.6763,-222.558 65,-181 70.1548,-175.4102 76.734,-171.3823 83.8188,-168.4946"/>
<polygon fill="#191970" stroke="#191970" points="85.3119,-171.6872 93.7068,-165.2238 83.1135,-165.0414 85.3119,-171.6872"/>
</g>
<!-- Node22 -->
<g id="node23" class="node">
<title>Node22</title>
<g id="a_node23"><a xlink:href="hsk__can_8h.html#a48d89d605eb1f79774d1a5a86bf387bc" target="_top" xlink:title="Creates a new CAN message. ">
<polygon fill="none" stroke="#000000" points="82.5,-114.5 82.5,-133.5 192.5,-133.5 192.5,-114.5 82.5,-114.5"/>
<text text-anchor="middle" x="137.5" y="-121.5" font-family="Helvetica,sans-Serif" font-size="10.00" fill="#000000">hsk_can_msg_create</text>
</a>
</g>
</g>
<!-- Node0&#45;&gt;Node22 -->
<g id="edge22" class="edge">
<title>Node0&#45;&gt;Node22</title>
<path fill="none" stroke="#191970" d="M14.6346,-456.3444C15.5083,-407.7944 21.8108,-190.7977 65,-143 67.5489,-140.1791 70.4604,-137.7546 73.6186,-135.6728"/>
<polygon fill="#191970" stroke="#191970" points="75.3147,-138.7348 82.4748,-130.9256 72.0076,-132.5653 75.3147,-138.7348"/>
</g>
<!-- Node23 -->
<g id="node24" class="node">
<title>Node23</title>
<g id="a_node24"><a xlink:href="hsk__can_8h.html#afbae0ee5ea7ee60cbeb705d5d940f2b4" target="_top" xlink:title="Connect a message object to a CAN node. ">
<polygon fill="none" stroke="#000000" points="79,-76.5 79,-95.5 196,-95.5 196,-76.5 79,-76.5"/>
<text text-anchor="middle" x="137.5" y="-83.5" font-family="Helvetica,sans-Serif" font-size="10.00" fill="#000000">hsk_can_msg_connect</text>
</a>
</g>
</g>
<!-- Node0&#45;&gt;Node23 -->
<g id="edge23" class="edge">
<title>Node0&#45;&gt;Node23</title>
<path fill="none" stroke="#191970" d="M15.2087,-456.4268C19.3258,-401.9195 40.8223,-132.1946 65,-105 66.5805,-103.2223 68.305,-101.6015 70.1449,-100.1245"/>
<polygon fill="#191970" stroke="#191970" points="72.3385,-102.8754 78.8619,-94.5269 68.5561,-96.9852 72.3385,-102.8754"/>
</g>
<!-- Node24 -->
<g id="node25" class="node">
<title>Node24</title>
<g id="a_node25"><a xlink:href="hsk__can_8h.html#a65593388f5d52493130ef62966b11c11" target="_top" xlink:title="Sets the current data in the CAN message. ">
<polygon fill="none" stroke="#000000" points="79,-38.5 79,-57.5 196,-57.5 196,-38.5 79,-38.5"/>
<text text-anchor="middle" x="137.5" y="-45.5" font-family="Helvetica,sans-Serif" font-size="10.00" fill="#000000">hsk_can_msg_setData</text>
</a>
</g>
</g>
<!-- Node0&#45;&gt;Node24 -->
<g id="edge24" class="edge">
<title>Node0&#45;&gt;Node24</title>
<path fill="none" stroke="#191970" d="M15.0899,-456.1949C18.6875,-397.7954 38.4057,-97.3099 65,-67 66.5688,-65.212 68.2833,-63.5824 70.1147,-62.0978"/>
<polygon fill="#191970" stroke="#191970" points="72.3094,-64.8466 78.8033,-56.4752 68.5063,-58.9697 72.3094,-64.8466"/>
</g>
<!-- Node25 -->
<g id="node26" class="node">
<title>Node25</title>
<g id="a_node26"><a xlink:href="hsk__can_8h.html#ae4bc047461eb48f3c81edbd728cc57d2" target="_top" xlink:title="Request transmission of a message. ">
<polygon fill="none" stroke="#000000" points="85.5,-.5 85.5,-19.5 189.5,-19.5 189.5,-.5 85.5,-.5"/>
<text text-anchor="middle" x="137.5" y="-7.5" font-family="Helvetica,sans-Serif" font-size="10.00" fill="#000000">hsk_can_msg_send</text>
</a>
</g>
</g>
<!-- Node0&#45;&gt;Node25 -->
<g id="edge25" class="edge">
<title>Node0&#45;&gt;Node25</title>
<path fill="none" stroke="#191970" d="M14.963,-456.4763C18.004,-395.6073 35.9037,-62.5266 65,-29 68.1063,-25.4208 71.7962,-22.4754 75.8408,-20.056"/>
<polygon fill="#191970" stroke="#191970" points="77.6844,-23.0528 85.1728,-15.5577 74.6449,-16.7471 77.6844,-23.0528"/>
</g>
</g>
</svg>
