<?xml version="1.0" encoding="UTF-8" standalone="no"?>
<!DOCTYPE svg PUBLIC "-//W3C//DTD SVG 1.1//EN"
 "http://www.w3.org/Graphics/SVG/1.1/DTD/svg11.dtd">
<!-- Generated by graphviz version 2.40.1 (20161225.0304)
 -->
<!-- Title: hsk_isr5_callback Pages: 1 -->
<svg width="108pt" height="161pt"
 viewBox="0.00 0.00 107.50 161.00" xmlns="http://www.w3.org/2000/svg" xmlns:xlink="http://www.w3.org/1999/xlink">
<g id="graph0" class="graph" transform="scale(1 1) rotate(0) translate(4 157)">
<title>hsk_isr5_callback</title>
<!-- Node1 -->
<g id="node1" class="node">
<title>Node1</title>
<polygon fill="#bfbfbf" stroke="#000000" points="0,-.5 0,-19.5 95,-19.5 95,-.5 0,-.5"/>
<text text-anchor="middle" x="47.5" y="-7.5" font-family="Helvetica,sans-Serif" font-size="10.00" fill="#000000">hsk_isr5_callback</text>
</g>
<!-- Node2 -->
<g id="node2" class="node">
<title>Node2</title>
<polygon fill="none" stroke="#bfbfbf" points="13.5,-133.5 13.5,-152.5 81.5,-152.5 81.5,-133.5 13.5,-133.5"/>
<text text-anchor="middle" x="47.5" y="-140.5" font-family="Helvetica,sans-Serif" font-size="10.00" fill="#000000">void(*)(void)</text>
</g>
<!-- Node2&#45;&gt;Node1 -->
<g id="edge1" class="edge">
<title>Node2&#45;&gt;Node1</title>
<path fill="none" stroke="#9a32cd" stroke-dasharray="5,2" d="M47.5,-123.3284C47.5,-94.4521 47.5,-41.6559 47.5,-19.8372"/>
<polygon fill="#9a32cd" stroke="#9a32cd" points="44.0001,-123.4349 47.5,-133.435 51.0001,-123.435 44.0001,-123.4349"/>
<text text-anchor="middle" x="73.5" y="-107" font-family="Helvetica,sans-Serif" font-size="10.00" fill="#000000"> CANSRC0</text>
<text text-anchor="middle" x="73.5" y="-96" font-family="Helvetica,sans-Serif" font-size="10.00" fill="#000000">ERRSYN</text>
<text text-anchor="middle" x="73.5" y="-85" font-family="Helvetica,sans-Serif" font-size="10.00" fill="#000000">EOFSYN</text>
<text text-anchor="middle" x="73.5" y="-74" font-family="Helvetica,sans-Serif" font-size="10.00" fill="#000000">CCTOVF</text>
<text text-anchor="middle" x="73.5" y="-63" font-family="Helvetica,sans-Serif" font-size="10.00" fill="#000000">TF2</text>
<text text-anchor="middle" x="73.5" y="-52" font-family="Helvetica,sans-Serif" font-size="10.00" fill="#000000">NDOV</text>
<text text-anchor="middle" x="73.5" y="-41" font-family="Helvetica,sans-Serif" font-size="10.00" fill="#000000">EXF2</text>
</g>
</g>
</svg>
